<?xml version="1.0" standalone="no"?>
<!DOCTYPE svg PUBLIC "-//W3C//DTD SVG 1.1//EN" "http://www.w3.org/Graphics/SVG/1.1/DTD/svg11.dtd">
<svg xmlns="http://www.w3.org/2000/svg">
<metadata>Copyright (C) 2025 by original authors @ fontello.com</metadata>
<defs>
<font id="fontello" horiz-adv-x="1000" >
<font-face font-family="fontello" font-weight="400" font-stretch="normal" units-per-em="1000" ascent="850" descent="-150" />
<missing-glyph horiz-adv-x="1000" />
<glyph glyph-name="clients-logo-slider" unicode="&#xe800;" d="M688 529c0 21-1 40-3 55 0 0 0 1-1 1-4 43-16 64-34 75-20 14-54 20-114 20h-72c-60 0-94-6-114-20-18-11-30-32-34-75 0 0 0-1-1-1-2-15-2-34-2-55v-358c0-21 0-39 2-55 1 0 1-1 1-1 4-43 16-64 34-75 20-14 54-20 114-20h72c60 0 94 6 114 20 18 11 30 32 34 75l1 1c2 16 3 34 3 55v358z m53-358c0-22-1-43-3-62l0 0c-6-50-21-90-58-114-35-23-84-29-144-29h-72c-60 0-109 6-143 29-38 24-53 64-59 114l0 0c-2 19-3 40-3 62v358c0 22 1 43 3 63 6 50 22 89 59 113 34 23 83 29 143 29h72c60 0 109-6 144-29 36-24 52-63 58-113l1-15c2-15 2-31 2-48v-358z m-482 358c0 11 0 22 1 32-46 0-65-6-74-16-10-9-16-28-16-76v-238c0-48 6-67 16-76 9-10 28-16 74-16-1 10-1 21-1 32v358z m54-358c0-21 0-39 2-55 2-7-1-15-5-21-5-5-12-9-19-10-6 0-12 0-17 0h-12c-48 0-88 5-114 32-27 26-32 67-32 114v238c0 47 5 88 32 114 26 27 66 32 114 32h12c5 0 11 0 17 0 7-1 14-4 19-10 4-6 7-14 5-21-2-15-2-34-2-55v-358z m375 358c0 21-1 40-3 55-1 7 1 15 5 21 5 6 12 9 19 10 6 0 12 0 17 0h12c48 0 88-5 114-32 27-26 32-67 32-114v-238c0-47-5-88-32-114-26-27-66-32-114-32h-12c-5 0-11 0-17 0-7 1-14 5-19 10-4 6-6 14-5 21 2 16 3 34 3 55v358z m53-358c0-11 0-22-1-32 46 0 65 6 74 16 10 9 16 28 16 76v238c0 48-6 67-16 76-9 10-28 16-74 16 1-10 1-21 1-32v-358z" horiz-adv-x="1000" />

<glyph glyph-name="comments" unicode="&#xe801;" d="M890 517c0 79-20 133-55 168-35 35-89 55-168 55h-334c-79 0-133-20-168-55-35-35-55-89-55-168v-209c0-101 21-154 54-183 33-29 87-40 169-40h21c11 0 22-3 31-8 8-4 17-10 24-19l62-84c10-12 21-16 29-16 9 0 19 4 29 16l62 84c13 17 33 27 55 27h21c79 0 133 20 168 55 35 35 55 89 55 168v209z m53-209c0-87-21-158-70-206-48-49-119-70-206-70h-21c-5 0-9-3-12-6l-63-84c-18-24-43-38-71-38-28 0-53 14-71 38l-63 84 0 0c0 0 0 0-1 1-1 1-3 2-4 2-2 1-3 2-5 2-1 1-2 1-2 1h-21c-83 0-155 10-205 53-50 44-71 117-71 223v209c0 87 21 158 70 206 48 49 119 71 206 71h334c87 0 158-22 206-71 49-48 70-119 70-206v-209z m-276 119c20 0 36-16 36-35 0-20-16-36-36-36h0c-20 0-36 16-36 36 0 19 16 35 36 35h0z m-167 0c20 0 36-16 36-35 0-20-16-36-36-36h0c-20 0-36 16-36 36 0 19 16 35 36 35h0z m-166 0c19 0 35-16 35-35 0-20-16-36-35-36h-1c-20 0-36 16-36 36 0 19 16 35 36 35h1z" horiz-adv-x="1000" />

<glyph glyph-name="contact-box" unicode="&#xe802;" d="M890 517c0 83-11 125-34 147-23 23-64 34-148 34h-416c-84 0-125-11-148-34-23-22-34-64-34-147v-334c0-83 11-125 34-147 23-23 64-34 148-34h416c84 0 125 11 148 34 23 22 34 64 34 147v334z m53-334c0-83-9-145-49-185-40-40-102-50-186-50h-416c-83 0-146 10-186 50-40 40-49 102-49 185v334c0 83 9 146 49 185 40 40 103 50 186 50h416c84 0 146-10 186-50 40-39 49-102 49-185v-334z m-151 361c15 0 26-12 26-27 0-15-11-27-26-27h-209c-14 0-26 12-26 27 0 15 12 27 26 27h209z m0-167c15 0 27-12 27-27 0-15-12-27-27-27h-167c-15 0-27 12-27 27 0 15 12 27 27 27h167z m0-167c15 0 26-12 26-27 0-14-11-26-26-26h-84c-14 0-26 12-26 26 0 15 12 27 26 27h84z m-389 245c0 27-22 49-49 49-27 0-48-22-48-49 0-27 21-49 48-49 27 0 49 22 49 49z m53 0c0-56-45-102-102-102-56 0-102 46-102 102 0 56 46 102 102 102 57 0 102-45 102-102z m-136-145c23 2 46 2 68 0l0 0c73-7 132-65 139-138 1-15-10-28-24-29-15-1-28 9-30 24-4 48-42 85-90 89l0 0c-19 2-38 2-58 0h0c-48-4-85-42-90-89-1-15-14-25-29-24-15 1-26 14-24 29 7 74 65 131 138 138z" horiz-adv-x="1000" />

<glyph glyph-name="demo" unicode="&#xe803;" d="M792 351c15 0 26-12 26-26 0-15-11-27-26-27h-709c-14 0-26 12-26 27 0 14 12 26 26 26h709z m-27 71c0 62-9 90-24 105-15 15-44 23-107 23h-393c-11 0-21 0-31 0l0 0c-48-3-69-13-80-28-13-16-20-44-20-100v-292c0-62 9-90 24-105 15-15 44-23 107-23h393c62 0 91 8 107 22 14 14 23 41 24 100v298z m53-298c0-60-8-108-41-139-32-30-81-37-143-37h-393c-63 0-113 7-145 39-32 32-39 81-39 143v292c0 56 6 102 31 134 26 33 68 44 119 47l0 0v0c10 0 22 1 34 1h393c63 0 113-7 145-39 32-32 39-81 39-143v-298z m72 446c0 62-9 90-24 105-15 15-44 23-107 23h-393c-62 0-91-8-106-22-13-12-21-32-24-72 2 0 3 0 5 0h393c63 0 113-7 145-39 32-32 39-81 39-143v-268c29 4 43 13 52 24 13 16 20 44 20 100v292z m53-292c0-56-6-102-31-134-26-33-67-44-119-47-7 0-14 2-20 7-5 5-8 12-8 20v298c0 62-9 90-24 105-15 15-44 23-107 23h-393c-11 0-22 0-31 0-8-1-15 2-20 7-6 5-8 12-8 20 0 59 8 107 41 138 32 30 81 37 143 37h393c63 0 113-7 145-39 32-32 39-81 39-143v-292z m-653-143c15 0 27-12 27-27 0-15-12-27-27-27h-71c-15 0-27 12-27 27 0 15 12 27 27 27h71z m233 0c15 0 27-12 27-27 0-15-12-27-27-27h-143c-15 0-27 12-27 27 0 15 12 27 27 27h143z" horiz-adv-x="1000" />

<glyph glyph-name="custom-projects" unicode="&#xe804;" d="M779 418c46 0 87-20 114-52 1 0 1-1 1-1 1 0 1-1 2-2 1-1 1-2 2-3 23-29 36-67 32-108l-17-208 0-1-27 3 27-3c-3-29-6-67-28-94-24-30-64-42-123-42h-524c-59 0-99 12-123 42-22 27-25 65-28 94l0 1-17 208 0 0c-3 42 10 81 33 110l1 1 1 1c28 34 70 54 116 54h558z m-558-53c-30 0-57-14-75-36l-1-1-1 0c-13-17-21-38-21-61l1-10 0-1 17-208h-1c4-34 7-53 17-66 8-10 27-22 81-22h524c54 0 73 12 81 22 11 13 13 32 17 66l16 208 0 1c3 27-5 52-22 72l-4 5c-17 19-43 31-71 31h-558z m-102 9v214c0 71 8 126 43 161 35 35 90 43 161 43h53c29 0 51-4 69-15 13-8 22-18 30-28l7-10 0 0 53-71 8-10c2-2 3-3 5-4 2-1 7-3 22-3h107c70 0 125-9 160-44 35-35 44-90 44-160v-75c0-15-12-27-27-27-15 0-27 12-27 27v75c0 71-10 104-28 122-18 18-51 28-122 28h-107c-20 0-36 3-50 11-13 8-22 20-27 28l-1 0-53 71v0c-10 14-15 20-22 24-6 4-17 8-41 8h-53c-71 0-105-10-123-28-18-18-27-52-27-123v-214c0-15-12-27-27-27-15 0-27 12-27 27z m488-206c15 0 27-11 27-26 0-15-12-27-27-27h-214c-15 0-27 12-27 27 0 15 12 26 27 26h214z" horiz-adv-x="1000" />

<glyph glyph-name="domain-search" unicode="&#xe805;" d="M890 350c0 215-175 390-390 390-215 0-390-175-390-390 0-215 175-390 390-390 15 0 27-12 27-27 0-14-12-26-27-26-245 0-443 198-443 443 0 245 198 444 443 444 245-1 443-199 443-444 0-15-12-27-26-27-15 0-27 12-27 27z m-515 402c9 0 17-4 22-11 5-7 6-16 3-24-79-238-79-496 0-734 3-8 2-17-3-24-5-7-13-11-22-11h-42c-14 0-26 12-26 27 0 15 12 27 26 27h5c-68 227-68 469 0 696h-5c-14 0-26 12-26 27 0 15 12 27 26 27h42z m284-402c0 124-20 248-59 367-5 14 3 29 17 33 14 5 29-2 33-17 42-124 63-253 63-383 0-15-12-27-27-27-15 0-27 12-27 27z m-561-167v42c0 9 4 17 11 22 7 5 16 6 24 3 119-39 243-59 367-59 15 0 27-12 27-27 0-15-12-27-27-27-117 0-235 18-348 52v-6c0-14-12-26-27-26-15 0-27 12-27 26z m19 317c248 84 518 84 767 0 14-4 21-19 16-33-4-14-19-22-33-17-238 79-496 79-733 0-14-5-30 3-34 17-5 14 3 29 17 33z m748-408c0 59-48 106-107 106-58 0-106-47-106-106 0-59 48-107 106-107 59 0 107 48 107 107z m54 0c0-89-72-161-161-161-88 0-160 72-160 161 0 88 72 160 160 160 89 0 161-72 161-160z m-63-98c11 10 28 10 38 0l42-42c10-10 10-27 0-38-11-10-28-10-38 0l-42 42c-10 10-10 27 0 38z" horiz-adv-x="1000" />

<glyph glyph-name="faq" unicode="&#xe806;" d="M795 622c14 0 26-12 26-26 0-15-12-27-26-27h-590c-14 0-26 12-26 27 0 14 12 26 26 26h590z m0-163c14 0 26-12 26-27 0-15-12-27-26-27h-590c-14 0-26 12-26 27 0 15 12 27 26 27h590z m0-164c14 0 26-12 26-27 0-15-12-27-26-27h-590c-14 0-26 12-26 27 0 15 12 27 26 27h590z m0-164c14 0 26-12 26-26 0-15-12-27-26-27h-590c-14 0-26 12-26 27 0 14 12 26 26 26h590z" horiz-adv-x="1000" />

<glyph glyph-name="heading" unicode="&#xe807;" d="M709 567v54c0 21-17 39-39 39h-461c-22 0-40-18-40-39v-54c0-15-12-27-26-27-15 0-27 12-27 27v54c0 51 41 93 93 93h461c51 0 93-42 93-93v-54c0-15-12-27-27-27-15 0-27 12-27 27z m-296-435v528c0 15 12 27 26 27 15 0 27-12 27-27v-528c0-15-12-27-27-27-14 0-26 12-26 27z m104 27c15 0 27-12 27-27 0-15-12-27-27-27h-199c-15 0-27 12-27 27 0 15 12 27 27 27h199z m314 175v28c0 11-9 21-21 21h-250c-15 0-27 12-27 26 0 15 12 27 27 27h250c41 0 74-33 74-74v-28c0-15-12-27-26-27-15 0-27 12-27 27z m-212-321v377c0 15 12 27 27 27 15 0 27-12 27-27v-377c0-15-12-27-27-27-15 0-27 12-27 27z m103 27c15 0 27-12 27-27 0-15-12-27-27-27h-153c-14 0-26 12-26 27 0 15 12 27 26 27h153z" horiz-adv-x="1000" />

<glyph glyph-name="icon-box-slider" unicode="&#xe808;" d="M575 327c0 42-8 65-21 77-12 13-35 21-77 21h-107c-42 0-65-8-77-21-13-12-22-35-22-77v-107c0-42 9-65 22-77 13-13 35-22 77-22h107c42 0 65 9 77 22 13 12 21 35 21 77v107z m54-107c0-47-9-88-37-115-28-28-68-37-115-37h-107c-47 0-87 9-115 37-28 27-37 68-37 115v107c0 48 9 88 37 115 27 28 68 37 115 37h107c47 0 88-9 115-37 28-27 37-67 37-115v-107z m100 153v107c0 42-9 65-22 77-12 13-35 22-77 22h-107c-42 0-65-9-77-21-13-13-21-35-21-78v-1h52c47 0 87-9 115-37 28-27 37-67 37-115v-52h1c42 0 65 8 77 21 13 13 22 35 22 77z m53 0c0-47-9-87-37-115-27-28-68-37-115-37h-28c-15 0-27 12-27 27v79c0 42-8 65-21 77-12 13-35 21-77 21h-79c-15 0-27 12-27 27v28c0 48 9 88 37 115 28 28 68 37 115 37h107c48 0 88-9 115-37 28-27 37-67 37-115v-107z m84-141c0 15 12 27 27 27 15 0 27-12 27-27 0-167-135-302-302-302-10 0-19 6-23 14-5 8-5 19 0 27l41 69c8 12 24 17 37 9 13-8 17-24 9-37l-14-23c113 23 198 123 198 243z m-786 236c0 167 135 302 302 302 10 0 19-6 23-14 5-8 5-19 0-27l-41-69c-8-12-24-16-37-9-13 8-17 24-9 37l14 23c-113-23-198-123-198-243 0-15-12-27-27-27-15 0-27 12-27 27z" horiz-adv-x="1000" />

<glyph glyph-name="iconbox" unicode="&#xe809;" d="M890 684c0 26-6 38-13 43-7 7-22 13-53 13h-169c-31 0-46-6-53-13-7-5-13-17-13-43v-189c0-26 6-37 13-43 7-7 22-12 53-12h169c31 0 46 5 53 12 7 6 13 17 13 43v189z m54-189c0-33-8-63-31-83-23-20-54-26-89-26v0h-169c-35 0-66 6-89 26-23 21-30 50-30 83v189c0 33 7 63 30 84 23 19 54 26 89 26h169c35 0 67-7 89-26 23-21 31-51 31-84v-189z m-54-300c0 30-6 45-14 52-7 7-22 14-52 14h-169c-30 0-44-7-52-14-7-7-14-22-14-52v-169c0-30 7-45 14-52 8-8 22-14 52-14h169c30 0 45 6 52 14 8 7 14 22 14 52v169z m54-169c0-36-8-68-30-90-22-22-54-30-90-30h-169c-35 0-67 8-90 30-22 22-29 54-29 90v169c0 35 7 67 29 90 23 22 55 29 90 29h169c36 0 68-7 90-29 22-23 30-55 30-90v-169z m-533 658c0 26-6 38-13 43-7 7-22 13-53 13h-169c-31 0-46-6-53-13-7-5-13-17-13-43v-189c0-26 6-37 13-43 7-7 22-12 53-12h169c31 0 46 5 53 12 7 6 13 17 13 43v189z m53-189c0-33-7-63-30-83-23-20-54-26-89-26v0h-169c-35 0-66 6-89 26-23 21-30 50-30 83v189c0 33 7 63 30 84 23 19 54 26 89 26h169c35 0 66-7 89-26 23-21 30-51 30-84v-189z m-53-300c0 30-7 45-14 52-7 7-22 14-52 14h-169c-30 0-45-7-52-14-8-7-14-22-14-52v-169c0-30 6-45 14-52 7-8 22-14 52-14h169c30 0 45 6 52 14 7 7 14 22 14 52v169z m53-169c0-36-7-68-29-90-23-22-55-30-90-30h-169c-36 0-68 8-90 30-22 22-29 54-29 90v169c0 35 7 67 29 90 22 22 54 29 90 29h169c35 0 67-7 90-29 22-23 29-55 29-90v-169z" horiz-adv-x="1000" />

<glyph glyph-name="image-accordion" unicode="&#xe80a;" d="M890 538c0 25-1 46-4 65 0 0 0 1 0 1-5 51-19 76-42 91-25 16-65 24-136 24h-166c-70 0-111-8-136-24-23-15-37-40-42-91 0 0 0-1 0-1-3-19-4-40-4-65v-375c0-20 1-36 2-51l2-15 0-1c5-51 19-76 42-91 25-16 66-24 136-24h166c71 0 111 8 136 24 23 15 37 40 42 91 0 1 0 1 0 1 3 19 4 40 4 66v375z m53-375c0-26 0-50-3-73l0 0c-7-58-25-102-66-130-40-26-95-33-166-33h-166c-71 0-126 7-166 33-41 28-59 72-66 130l1 0c-4 23-4 47-4 73v375c0 26 0 50 4 72 6 58 24 102 65 130 40 26 95 33 166 33h166c71 0 126-7 166-33 41-28 59-72 65-130l2-17c2-17 2-36 2-55v-375z m-886-125v625c0 14 12 26 26 26 15 0 27-12 27-26v-625c0-15-12-27-27-27-14 0-26 12-26 27z m125 20v625c0 15 12 27 26 27 15 0 27-12 27-27v-625c0-14-12-26-27-26-14 0-26 12-26 26z" horiz-adv-x="1000" />

<glyph glyph-name="image-carousel" unicode="&#xe80b;" d="M890 475c0 102-21 166-60 205-39 39-103 60-205 60h-250c-101 0-166-21-205-60-39-39-60-103-60-205v-250c0-101 21-166 60-205 39-39 104-60 205-60h250c102 0 166 21 205 60 39 39 60 104 60 205v250z m54-250c0-107-22-188-76-243-54-54-136-75-243-75h-250c-107 0-188 21-243 75-54 55-75 136-75 243v250c0 107 21 189 75 243 55 54 136 75 243 75h250c107 0 189-21 243-75 54-54 76-136 76-243v-250z m-512 292c0 31-26 56-57 56-31 0-57-25-57-56 0-32 26-57 57-57 31 0 57 25 57 57z m53 0c0-61-49-110-110-110-61 0-110 49-110 110 0 61 49 110 110 110 61 0 110-49 110-110z m229-167c42 36 110 36 152 0l68-59c11-9 13-26 3-38-10-11-26-12-38-2l-68 58c-21 18-55 19-78 3l-4-3-174-149c-42-36-109-36-152 0l0 0-14 12c-20 18-54 20-77 4l-206-138c-12-8-29-5-37 8-8 12-5 28 7 37l206 138c42 28 103 25 142-8l0 0 14-12h0c23-20 60-19 82 0l1 0 173 149z" horiz-adv-x="1000" />

<glyph glyph-name="marquee-logo" unicode="&#xe80c;" d="M432 517c0 31-26 56-57 56-31 0-56-25-57-56 0-32 26-57 57-57 31 0 57 25 57 57z m53 0c0-61-49-110-110-110-61 0-110 49-110 110 0 61 49 110 110 110 61 0 110-49 110-110z m-428-292v250c0 107 21 189 75 243 55 54 136 76 243 76h125c15-1 27-12 27-27 0-15-12-27-27-27h-125c-101 0-166-21-205-60-39-39-60-103-60-205v-250c0-101 21-166 60-205 39-39 104-60 205-60h250c102 0 166 21 205 60 39 39 60 104 60 205v167c0 15 12 26 27 27 15 0 26-12 26-27v-167c0-107-21-188-75-243-54-54-136-75-243-75h-250c-107 0-188 21-243 75-54 55-75 136-75 243z m732 539c24 16 54 18 78 10 65-20 82-93 66-145-13-41-42-72-69-91-14-10-28-18-40-23-11-5-24-9-34-9-11 0-24 4-35 9-12 5-26 13-40 22-27 20-56 50-69 92v0c-16 52 1 125 65 145l0 0c24 8 54 6 78-10z m62-41c-15 5-32 1-39-11-5-7-13-11-22-12-9 0-17 4-22 11-9 12-26 17-41 12-26-8-41-43-30-78 9-27 29-49 50-64 10-8 20-13 29-17 9-4 14-4 14-4-1 0 4 0 13 4 9 4 19 10 29 17 21 15 41 37 50 64 11 35-4 70-31 78l0 0z m-137-373c42 36 110 36 152 0l68-59c11-9 13-26 3-38-10-11-26-12-38-2l-68 58c-21 18-55 19-78 3l-4-3-174-149c-42-36-109-36-152 0l0 0-14 12c-20 18-54 20-77 4l-206-138c-12-8-29-5-37 8-8 12-5 28 7 37l206 138c42 28 103 25 142-8l0 0 14-12h0c23-20 60-19 82 0l1 0 173 149z" horiz-adv-x="1000" />

<glyph glyph-name="meta" unicode="&#xe80d;" d="M110 350c0-214 176-390 390-390 214 0 390 176 390 390 0 214-176 390-390 390-214 0-390-176-390-390z m-53 0c0 244 199 443 443 443 244 0 443-199 443-443 0-244-199-444-443-444-244 1-443 200-443 444z m470 42l0-209c0-14-12-26-27-26-15 0-27 12-27 26l0 209c0 14 12 26 27 26 15 0 27-12 27-26z m-27 89c-20 0-36 16-36 36 0 19 16 35 36 35l0 0c20 0 36-16 36-35 0-20-16-36-36-36l0 0z" horiz-adv-x="1000" />

<glyph glyph-name="page-title" unicode="&#xe80e;" d="M890 475c0 102-21 166-60 205-39 39-103 60-205 60h-250c-101 0-166-21-205-60-39-39-60-103-60-205v-250c0-101 21-166 60-205 39-39 104-60 205-60h250c102 0 166 21 205 60 39 39 60 104 60 205v250z m53-250c0-107-21-188-75-243-54-54-136-75-243-75h-250c-107 0-188 21-243 75-54 55-75 136-75 243v250c0 107 21 189 75 243 55 54 136 76 243 76h250c107-1 189-22 243-76 54-54 75-136 75-243v-250z m-663 279c139 69 302 69 440 0 14-7 19-23 12-36-6-14-22-19-36-12-123 61-269 61-392 0-14-7-30-2-36 12-7 13-1 29 12 36z m193-333v349c0 14 12 26 27 26 15 0 27-12 27-26v-349c0-15-12-27-27-27-15 0-27 12-27 27z" horiz-adv-x="1000" />

<glyph glyph-name="pagination" unicode="&#xe80f;" d="M704 518c-3 4-7 6-12 8-4 2-9 3-14 3-4 0-9-1-13-3-5-1-9-4-12-7-3-4-6-8-8-12-2-5-3-9-3-14 1-5 2-9 3-14 2-4 5-8 8-11l118-118-118-118c-3-3-6-7-8-11-1-5-2-9-3-14 0-5 1-9 3-14 2-4 5-8 8-12 3-3 7-6 12-7 4-2 9-3 13-3 5 0 10 1 14 3 5 2 9 5 12 8l143 143c6 7 10 16 10 25 0 10-4 19-10 25l-143 143z m-383-347c8 0 14 3 20 7 6 3 11 9 13 16 3 6 4 13 2 20-1 7-4 13-9 18l-118 118 118 118c3 3 6 7 8 11 2 5 3 9 3 14 0 5-1 9-3 14-2 4-4 8-8 12-3 3-7 6-12 7-4 2-9 3-13 3-5 0-10-1-14-3-5-2-8-4-12-8l-143-143c-6-6-10-15-10-25 0-9 4-18 10-25l143-143c7-7 16-11 25-11z" horiz-adv-x="1000" />

<glyph glyph-name="post-content" unicode="&#xe810;" d="M875 689c15 0 27-12 27-26 0-15-12-27-27-27h-750c-15 0-27 12-27 27 0 14 12 26 27 26h750z m-355-208c14 0 26-12 26-27 0-15-12-27-26-27h-395c-15 0-27 12-27 27 0 15 12 27 27 27h395z m355-208c15 0 27-12 27-27 0-15-12-27-27-27h-750c-15 0-27 12-27 27 0 15 12 27 27 27h750z m-355-209c14 0 26-12 26-26 0-15-12-27-26-27h-395c-15 0-27 12-27 27 0 14 12 26 27 26h395z" horiz-adv-x="1000" />

<glyph glyph-name="post-excerpt" unicode="&#xe811;" d="M827 379v178c0 84-10 126-32 149-21 23-59 34-137 34h-315c-79 0-117-11-138-34-22-23-32-65-32-149v-469c0-26 3-45 8-57 5-13 11-17 15-19 4-2 10-3 22 2 11 5 26 16 43 34l1 1c45 48 117 44 156-9l42-57c9-11 7-28-5-37-12-9-29-6-38 5l-42 57c-19 26-52 28-75 4 0 0 0-1 0-1l-1 0c-19-21-40-37-60-46-21-9-43-11-64-2-21 8-35 26-43 48-9 21-13 47-13 77v469c0 83 9 146 47 186 38 41 98 51 177 51h315c78 0 139-10 177-51 37-40 46-103 46-186v-178c0-15-12-27-27-27-15 0-27 12-27 27z m38-287c0 59-48 106-107 106-58 0-106-47-106-106 0-59 48-107 106-107 59 0 107 48 107 107z m54 0c0-89-72-161-161-161-88 0-160 72-160 161 0 88 72 160 160 160 89 0 161-72 161-160z m-63-98c11 10 28 10 38 0l42-42c10-10 10-27 0-38-11-10-28-10-38 0l-42 42c-10 10-10 27 0 38z m-189 591c15 0 26-12 26-27 0-14-11-26-26-26h-334c-14 0-26 12-26 26 0 15 12 27 26 27h334z m-42-166c15 0 27-12 27-27 0-15-12-27-27-27h-250c-15 0-27 12-27 27 0 15 12 27 27 27h250z" horiz-adv-x="1000" />

<glyph glyph-name="post-grid" unicode="&#xe812;" d="M830 217c0 26-5 37-10 43-4 5-14 10-38 10h-564c-24 0-34-5-38-10-5-6-10-17-10-43v-144c0-26 5-38 10-43 4-5 14-10 38-10h564c24 0 34 5 38 10 5 5 10 17 10 43v144z m54-144c0-31-6-60-25-80-19-21-47-27-77-27h-564c-30 0-58 6-77 27-19 20-25 49-25 80v144c0 31 6 59 25 79 19 21 47 27 77 27h564c30 0 58-6 77-27 19-20 25-48 25-79v-144z m-54 555c0 26-5 37-10 42-4 5-14 10-38 10h-564c-24 0-34-5-38-10-5-5-10-16-10-42v-145c0-26 5-37 10-43 4-4 14-10 38-10h564c24 0 34 6 38 10 5 6 10 17 10 43v145z m54-145c0-30-6-59-25-79-19-21-47-27-77-27h-564c-30 0-58 6-77 27-19 20-25 49-25 79v145c0 30 6 59 25 79 19 21 47 27 77 27h564c30 0 58-6 77-27 19-20 25-49 25-79v-145z" horiz-adv-x="1000" />

<glyph glyph-name="post-slider" unicode="&#xe813;" d="M890 392c0 70-8 111-24 136-15 22-40 36-91 42-1 0-1 0-1 0-19 2-40 3-66 3h-416c-26 0-47-1-66-3 0 0 0 0-1 0-51-6-76-20-91-42-16-25-24-66-24-136v-84c0-70 8-111 24-135 15-23 40-37 91-43 1 0 1 0 1 0 19-2 40-3 66-3h416c26 0 47 1 66 3l1 0c51 6 76 20 91 43 16 24 24 65 24 135v84z m53-84c0-70-7-126-32-165-28-41-72-59-130-66 0 0 0 0 0 0 0 0 0 0-1 0l0 0c-22-3-46-4-72-4h-416c-26 0-50 1-72 4-59 7-103 24-131 66-25 39-32 95-32 165v84c0 70 7 126 32 165 28 42 72 59 131 66v0c22 3 46 4 72 4h416c26 0 50-1 72-4l0 0c1 0 1 0 1 0l0 0c58-7 102-25 130-66 25-39 32-95 32-165v-84z m-192-234c-13 0-28-1-43-1h-416c-15 0-29 1-43 1v-2c0-55 8-80 20-92 12-12 37-20 92-20h278c56 0 80 8 92 20 13 12 20 37 20 92v2z m54-2c0-55-7-101-36-130-29-29-75-35-130-35h-278c-55 0-100 6-130 35-29 29-36 75-36 130v14c0 6 0 13 1 20l0 2c1 7 5 13 10 17 6 4 13 6 20 5 19-2 40-3 66-3h416c26 0 47 1 66 3 7 1 15-1 20-5 6-5 10-12 10-19 1-7 1-14 1-20v-14z m-54 556c0 56-7 80-20 92-12 12-36 20-92 20h-278c-55 0-80-8-92-20-12-12-20-36-20-92v-2c14 1 28 1 43 1h416c15 0 30 0 43-1v2z m54-14c0-6 0-13-1-20 0-7-4-14-10-19-5-4-13-6-20-5-19 2-40 3-66 3h-416c-26 0-47-1-66-3-7-1-14 1-20 5-6 5-10 12-10 19-1 7-1 14-1 20v14c0 55 7 101 36 130 30 29 75 36 130 36h278c55 0 101-7 130-36 29-29 36-75 36-130v-14z" horiz-adv-x="1000" />

<glyph glyph-name="post-tag" unicode="&#xe814;" d="M890 548c0 73-8 117-26 143-16 24-43 39-97 45 0 0 0 0-1 0-19 3-42 4-69 4h-394c-27 0-50-1-70-4 0 0 0 0 0 0-55-6-82-21-98-45-17-26-25-70-25-143v-264c0-74 8-117 25-144 15-22 40-37 88-43l10-2 0 0c20-2 43-3 70-3h394c27 0 50 1 69 3l1 0c54 7 81 21 97 45 18 27 26 70 26 144v264z m53-264c0-74-7-132-34-173-28-43-74-62-135-69-24-3-49-4-77-4h-394c-28 0-53 1-76 4v0c0 0-1 0-1 0 0 0 0 0 0 0v0c-61 7-107 26-135 69-27 41-35 99-35 173v264c0 74 8 132 35 173 28 43 74 62 135 68v1c0 0 0 0 0 0 0 0 1 0 1 0v0c23 3 48 4 76 4h394c28 0 53-1 77-4l0-1c61-6 107-25 135-68 27-41 34-99 34-173v-264z m-224 246c15 0 27-12 27-27 0-14-12-26-27-26h-153c-15 0-27 12-27 26 0 15 12 27 27 27h153z m1-241c14 0 26-12 26-27 0-15-12-27-26-27h-439c-15 0-27 12-27 27 0 15 12 27 27 27h439z m-12-329c15 0 27-12 27-27 0-15-12-26-27-27h-416c-15 0-27 12-27 27 0 15 12 27 27 27h416z m-408 580c20 0 36-16 36-36 0-19-16-35-36-35h0c-20 0-36 16-36 35 0 20 16 36 36 36h0z m138 0c19 0 35-16 35-36 0-19-16-35-35-35h-1c-19 0-35 16-35 35 0 20 16 36 35 36h1z" horiz-adv-x="1000" />

<glyph glyph-name="post-title" unicode="&#xe815;" d="M875 689c15 0 27-12 27-26 0-15-12-27-27-27h-292c-14 0-26 12-26 27 0 14 12 26 26 26h292z m0-208c15 0 27-12 27-27 0-15-12-27-27-27h-292c-14 0-26 12-26 27 0 15 12 27 26 27h292z m0-208c15 0 27-12 27-27 0-15-12-27-27-27h-750c-15 0-27 12-27 27 0 15 12 27 27 27h750z m0-209c15 0 27-12 27-26 0-15-12-27-27-27h-750c-15 0-27 12-27 27 0 14 12 26 27 26h750z m-506 554c0 21-4 28-7 31-3 3-11 8-32 8h-119c-20 0-28-5-31-8-3-3-7-10-7-31v-119c0-21 4-28 7-31 3-4 11-8 31-8h119c21 0 29 4 32 8 3 3 7 10 7 31v119z m54-119c0-26-5-51-24-69-18-18-43-23-69-23h-119c-26 0-51 5-69 23-18 18-23 43-23 69v119c0 26 5 51 23 69 18 18 43 23 69 23h119c26 0 51-5 69-23 19-18 24-43 24-69v-119z" horiz-adv-x="1000" />

<glyph glyph-name="pricing-list" unicode="&#xe816;" d="M717 498c15 0 27-12 27-27 0-15-12-27-27-27h-203c-14 0-26 12-26 27 0 15 12 27 26 27h203z m-337 50c10 10 27 10 38 0 10-11 10-28 0-38l-87-87c-11-11-28-11-38 0l-29 29c-11 10-11 27 0 38 10 10 27 10 38 0l10-10 68 68z m337-321c15 0 27-12 27-27 0-15-12-27-27-27h-203c-14 0-26 12-26 27 0 15 12 27 26 27h203z m-337 50c10 10 27 10 38 0 10-11 10-28 0-38l-87-87c-11-10-28-10-38 0l-29 29c-11 10-11 27 0 38 10 10 27 10 38 0l10-10 68 68z m480 189c0 94-19 153-55 189-36 36-95 55-189 55h-232c-94 0-153-19-189-55-36-36-55-95-55-189v-232c0-94 19-153 55-189 36-36 95-55 189-55h232c94 0 153 19 189 55 36 36 55 95 55 189v232z m54-232c0-99-20-176-71-227-51-51-128-71-227-71h-232c-99 0-176 20-227 71-51 51-71 128-71 227v232c0 99 20 176 71 227 51 51 128 71 227 71h232c99 0 176-20 227-71 51-51 71-128 71-227v-232z" horiz-adv-x="1000" />

<glyph glyph-name="pricing-table" unicode="&#xe817;" d="M776 63v491c0 28-6 41-13 48-8 7-23 13-53 13h-44c-30 0-45-6-53-13-7-7-13-20-13-48v-491c0-15-12-27-27-27-14 0-26 12-26 27v491c0 34 7 65 30 87 22 21 54 28 89 28h44c35 0 67-7 89-28 23-22 30-53 30-87v-491c0-15-12-27-26-27-15 0-27 12-27 27z m-354 0v283c0 28-7 41-14 48-7 7-22 13-53 13h-43c-31 0-45-6-53-13-7-7-13-20-13-48v-283c0-15-12-27-27-27-15 0-27 12-27 27v283c0 34 8 65 30 87 23 21 55 27 90 27h43c36 0 68-6 90-27 23-22 30-53 30-87v-283c0-15-12-27-27-27-14 0-26 12-26 27z m495 22c15 0 26-12 26-27 0-14-11-26-26-26h-834c-14 0-26 12-26 26 0 15 12 27 26 27h834z" horiz-adv-x="1000" />

<glyph glyph-name="process-grid" unicode="&#xe818;" d="M890 674c0 30-6 45-14 52-7 8-22 14-52 14h-169c-30 0-44-6-52-14-7-7-14-22-14-52v-169c0-30 7-44 14-52 8-7 22-14 52-14h169c30 0 45 7 52 14 8 8 14 22 14 52v169z m54-169c0-35-8-67-30-90-22-22-54-29-90-29h-169c-35 0-67 7-90 29-22 23-29 55-29 90v169c0 36 7 68 29 90 23 22 55 30 90 30h169c36 0 68-8 90-30 22-22 30-54 30-90v-169z m-533 179c0 26-6 38-13 43-7 7-22 13-53 13h-169c-31 0-46-6-53-13-7-5-13-17-13-43v-189c0-26 6-37 13-43 7-7 22-12 53-12h169c31 0 46 5 53 12 7 6 13 17 13 43v189z m53-189c0-33-7-63-30-83-23-20-54-26-89-26v0h-169c-35 0-66 6-89 26-23 21-30 50-30 83v189c0 33 7 63 30 84 23 19 54 26 89 26h169c35 0 66-7 89-26 23-21 30-51 30-84v-189z m-53-300c0 30-7 45-14 52-7 7-22 14-52 14h-169c-30 0-45-7-52-14-8-7-14-22-14-52v-169c0-30 6-45 14-52 7-8 22-14 52-14h169c30 0 45 6 52 14 7 7 14 22 14 52v169z m53-169c0-36-7-68-29-90-23-22-55-30-90-30h-169c-36 0-68 8-90 30-22 22-29 54-29 90v169c0 35 7 67 29 90 22 22 54 29 90 29h169c35 0 67-7 90-29 22-23 29-55 29-90v-169z m411 205c15 0 27-12 27-27 0-15-12-27-27-27h-250c-15 0-27 12-27 27 0 15 12 27 27 27h250z m0-167c15 0 27-12 27-26 0-15-12-27-27-27h-250c-15 0-27 12-27 27 0 14 12 26 27 26h250z" horiz-adv-x="1000" />

<glyph glyph-name="process-list" unicode="&#xe819;" d="M807 506c0 63-18 96-39 114-19 15-45 23-78 25-12-53-60-93-117-93h-146c-33 0-63 14-85 36-16 15-27 35-32 57-33-2-59-10-78-25-21-18-39-51-39-114v-406c0-57 17-90 40-110 23-20 58-30 100-30h334c42 0 77 10 100 30 23 20 40 53 40 110v406z m53-406c0-68-20-118-58-151-37-31-86-42-135-42h-334c-49 0-98 11-135 42-38 33-58 83-58 151v406c0 73 20 124 59 155 37 31 86 39 134 39 15 0 27-12 27-27 0-18 8-35 20-47 12-13 29-20 47-20h146c37 0 67 30 67 67 0 15 12 27 27 27 48 0 97-8 135-39 38-31 58-82 58-155v-406z m-220 573c0 18-7 35-20 47-12 13-29 20-47 20h-146c-37 0-67-30-67-67 0-18 8-35 20-47 12-13 29-20 47-20h146c37 0 67 30 67 67z m53 0c0-66-54-121-120-121h-146c-33 0-63 14-85 36-22 22-35 52-35 85 0 66 54 121 120 121h146c33 0 63-14 85-36 22-22 35-52 35-85z m-193-338c15 0 27-12 27-27 0-14-12-26-27-26h-167c-14 0-26 12-26 26 0 15 12 27 26 27h167z m167-166c15 0 26-12 26-27 0-15-11-27-26-27h-334c-14 0-26 12-26 27 0 15 12 27 26 27h334z" horiz-adv-x="1000" />

<glyph glyph-name="process-slider" unicode="&#xe81a;" d="M765 538c0 25-1 46-4 65 0 0 0 1 0 1-5 51-19 76-42 91-25 16-65 24-136 24h-166c-70 0-111-8-136-24-23-15-37-40-42-91 0 0 0-1 0-1-3-19-4-40-4-65v-375c0-20 1-36 2-51l2-15 0-1c5-51 19-76 42-91 25-16 66-24 136-24h166c71 0 111 8 136 24 23 15 37 40 42 91 0 1 0 1 0 1 3 19 4 40 4 66v375z m53-375c0-26 0-50-3-73l0 0c-7-58-25-102-66-130-40-26-95-33-166-33h-166c-71 0-126 7-166 33-41 28-59 72-65 130l0 0c-4 23-4 47-4 73v375c0 26 0 50 4 72 6 58 24 102 65 130 40 26 95 33 166 33h166c71 0 126-7 166-33 41-28 59-72 65-130l2-17c2-17 2-36 2-55v-375z m-761-125v625c0 14 12 26 26 26 15 0 27-12 27-26v-625c0-15-12-27-27-27-14 0-26 12-26 27z m833 20v625c0 15 12 27 27 27 15 0 26-12 26-27v-625c0-14-11-26-26-26-15 0-27 12-27 26z" horiz-adv-x="1000" />

<glyph glyph-name="related-post" unicode="&#xe81b;" d="M640 313c0 70-14 112-40 137-25 26-67 40-137 40h-175c-71 0-113-14-138-40-26-25-40-67-40-137v-175c0-71 14-113 40-138 25-26 67-40 138-40h175c70 0 112 14 137 40 26 25 40 67 40 138v175z m53-175c0-76-14-136-55-176-40-41-100-55-175-55h-175c-76 0-136 14-176 55-40 40-55 100-55 176v175c0 75 15 135 55 175 40 41 100 56 176 56h175c75 0 135-15 175-56 41-40 55-100 55-175v-175z m197 250v175c0 70-14 112-40 137-25 26-67 40-137 40h-175c-71 0-113-14-138-40-26-25-40-67-40-137v-19h103c75 0 135-15 175-56 41-40 55-100 55-175v-103h20c70 0 112 14 137 40 26 25 40 67 40 138z m53 0c0-76-14-136-55-176-40-40-100-55-175-55h-46c-15 0-27 12-27 26v130c0 70-14 112-40 137-25 26-67 40-137 40h-130c-14 0-26 12-26 27v46c0 75 15 135 55 175 40 41 100 56 176 56h175c75 0 135-15 175-56 41-40 55-100 55-175v-175z" horiz-adv-x="1000" />

<glyph glyph-name="search" unicode="&#xe81c;" d="M794 386c0 163-132 294-294 294-163 0-295-131-295-294 0-162 132-294 295-294 162 0 294 132 294 294z m53 0c0-192-155-348-347-348-192 0-348 156-348 348 0 192 156 348 348 348 192 0 347-156 347-348z m-143-221c10 11 27 11 38 0l126-125c10-11 10-28 0-38-11-11-28-11-38 0l-126 125c-10 11-11 28 0 38z" horiz-adv-x="1000" />

<glyph glyph-name="service-list" unicode="&#xe81d;" d="M875 64c15 0 27-12 27-26 0-15-12-27-27-27h-417c-14 0-26 12-26 27 0 14 12 26 26 26h417z m0 292c15 0 27-12 27-27 0-15-12-27-27-27h-417c-14 0-26 12-26 27 0 15 12 27 26 27h417z m0 292c15 0 27-12 27-27 0-15-12-27-27-27h-417c-14 0-26 12-26 27 0 15 12 27 26 27h417z m-602 75c10 11 27 11 38 0 10-10 10-27 0-38l-125-125c-11-10-28-10-38 0l-42 42c-10 10-10 27 0 38 11 10 28 10 38 0l23-23 106 106z m0-292c10 11 27 11 38 0 10-10 10-27 0-37l-125-125c-11-11-28-11-38 0l-42 41c-10 11-10 28 0 38 11 11 28 11 38 0l23-23 106 106z m0-291c10 10 27 10 38 0 10-11 10-28 0-38l-125-125c-11-11-28-11-38 0l-42 42c-10 10-10 27 0 37 11 11 28 11 38 0l23-22 106 106z" horiz-adv-x="1000" />

<glyph glyph-name="slider" unicode="&#xe81e;" d="M411 679c0 28-6 41-13 48-8 7-23 13-53 13h-169c-30 0-45-6-53-13-7-7-13-20-13-48v-658c0-28 6-41 13-48 8-7 23-13 53-13h169c30 0 45 6 53 13 7 7 13 20 13 48v658z m53-658c0-35-7-65-30-87-22-21-54-27-89-27h-169c-35 0-67 6-89 27-23 22-30 52-30 87v658c0 34 7 65 30 87 22 21 54 28 89 28h169c35 0 67-7 89-28 23-22 30-53 30-87v-658z m426 658c0 28-6 41-13 48-8 7-22 13-53 13h-169c-30 0-45-6-52-13-8-7-14-20-14-48v-658c0-28 6-41 14-48 7-7 22-13 52-13h169c31 0 45 6 53 13 7 7 13 20 13 48v658z m54-658c0-35-8-65-31-87-22-21-54-27-89-27h-169c-35 0-67 6-89 27-23 22-30 52-30 87v658c0 34 7 65 30 87 22 21 54 28 89 28h169c35 0 67-7 89-28 23-22 31-53 31-87v-658z" horiz-adv-x="1000" />

<glyph glyph-name="site-logo" unicode="&#xe81f;" d="M830 628c0 25-5 36-10 42-6 5-17 10-42 10h-145c-25 0-37-5-42-10-5-6-11-17-11-42v-145c0-25 6-37 11-42 5-5 17-11 42-11h145c25 0 36 6 42 11 5 5 10 17 10 42v145z m54-145c0-31-6-60-26-80-21-20-49-26-80-26h-145c-31 0-60 6-80 26-20 20-26 49-26 80v145c0 31 6 59 26 80 20 20 49 26 80 26h145c31 0 59-6 80-26 20-21 26-49 26-80v-145z m-464 153c0 22-5 31-10 35-5 4-17 9-43 9h-144c-27 0-38-5-44-9-4-4-9-13-9-35v-161c0-22 5-31 9-35 6-4 17-9 44-9h144c26 0 38 5 43 9 5 4 10 13 10 34v162z m53-162c0-28-6-55-27-74-21-18-49-23-79-23l-144 0c-31 0-59 5-79 23-21 19-28 46-28 75v161c0 29 7 56 28 75 20 18 48 23 79 23h144c30 0 58-5 79-23 21-19 27-46 27-75v-162z m-53-257c0 26-6 37-11 42-5 5-16 11-42 11h-144c-26 0-37-6-43-11-5-5-10-16-10-42v-144c0-26 5-37 10-43 6-5 17-10 43-10h144c26 0 37 5 42 10 5 6 11 17 11 43v144z m53-144c0-32-6-60-26-81-20-20-49-26-80-26h-144c-32 0-60 6-81 26-20 21-26 49-26 81v144c0 31 6 60 26 80 21 20 49 26 81 26h144c31 0 60-6 80-26 20-20 26-49 26-80v-144z m348 179c15 0 27-12 27-27 0-15-12-27-27-27h-214c-15 0-27 12-27 27 0 15 12 27 27 27h214z m0-143c15 0 27-12 27-27 0-15-12-27-27-27h-214c-15 0-27 12-27 27 0 15 12 27 27 27h214z" horiz-adv-x="1000" />

<glyph glyph-name="social-icons" unicode="&#xe820;" d="M869 627c0 51-41 92-92 92-29 0-55-14-72-35 0-1-1-2-2-2-11-16-18-34-18-55 0-51 41-92 92-92 22 0 41 8 57 20l0 0c21 17 35 43 35 72z m54 0c0-46-22-88-56-114-24-20-56-31-90-31-80 0-145 65-145 145 0 34 11 65 31 90l2 2c0 1 0 1 1 1 26 32 66 53 111 53 81 0 146-65 146-146z m-608 0c0 22-7 41-20 57v0c-17 21-43 35-72 35-51 0-92-41-92-92 0-29 14-55 35-72h0c16-13 35-20 57-20 51 0 92 41 92 92z m54 0c0-80-65-145-146-145-34 0-65 11-90 31l0 0c-34 26-56 68-56 114 0 81 65 146 146 146 44 0 83-20 109-50l5-6 0 0c20-25 32-56 32-90z m500-554c0 29-14 55-35 72-1 0-2 1-2 2-16 11-34 18-55 18-51 0-92-41-92-92 0-21 7-39 18-54 1-1 2-2 2-3 17-21 43-35 72-35 51 0 92 41 92 92z m54 0c0-81-65-146-146-146-45 0-85 21-111 53-1 1-2 2-3 3-20 25-31 56-31 90 0 81 65 146 145 146 34 0 65-12 90-32 1-1 2-2 3-3 32-26 53-66 53-111z m-608 0c0 51-41 92-92 92-21 0-39-7-54-18-1-1-2-2-3-2-21-17-35-43-35-72 0-51 41-92 92-92 29 0 55 13 72 35l5 6c9 15 15 32 15 51z m54 0c0-34-12-65-32-90-26-34-68-56-114-56-81 0-146 65-146 146 0 45 21 85 53 111 1 1 2 2 3 3 25 20 56 32 90 32 81-1 146-65 146-146z m263 554c0 22 5 43 14 62-45 19-94 30-146 30-52 0-101-11-146-30 9-19 15-39 15-62 0-80-65-145-146-145-22 0-43 5-62 14-19-45-30-94-30-146 0-52 11-101 30-146 19 9 40 15 62 15 81 0 146-65 146-146 0-22-6-43-14-62 44-19 93-30 145-30 52 0 101 11 146 30-9 19-14 40-14 62 0 81 65 146 145 146 22 0 43-6 62-14 19 44 30 93 30 145 0 52-11 101-30 146-19-9-39-14-62-14-80 0-145 65-145 145z m53 0c0-51 41-92 92-92 22 0 41 7 57 20l2 2c6 3 13 4 20 3 8-2 14-7 18-14 31-58 49-125 49-196 0-71-18-137-49-196-4-7-10-12-18-14-8-2-16 0-22 5-16 13-35 20-57 20-51 0-92-41-92-92 0-22 7-41 20-57 5-6 7-14 5-22-2-8-7-14-14-18-58-31-125-49-196-49-71 0-137 18-196 49-7 4-12 10-14 18-2 8 0 16 5 22 13 16 20 35 20 57 0 51-41 92-92 92-22 0-41-7-57-20-6-5-14-7-22-5-8 2-14 7-18 14-31 59-49 125-49 196 0 71 18 138 49 196l1 3c4 6 10 10 17 11 8 2 16 0 22-5 16-13 35-20 57-20 51 0 92 41 92 92 0 22-7 41-20 57-5 6-7 14-5 22 2 8 7 14 14 18 59 31 125 49 196 49 71 0 138-18 196-49 7-4 12-10 14-18 2-8 0-16-5-22-12-16-20-35-20-57z" horiz-adv-x="1000" />

<glyph glyph-name="social-share" unicode="&#xe821;" d="M810 698c10 10 27 10 38 0 10-11 10-28 0-38l-293-293c-11-11-28-11-38 0-11 10-11 27 0 38l293 293z m20-162v144h-144c-15 0-27 12-27 27 0 15 12 27 27 27h171c15 0 27-12 27-27v-171c0-15-12-27-27-27-15 0-27 12-27 27z m-714-293v214c0 92 18 163 66 211 48 48 119 66 211 66h71c15 0 27-12 27-27 0-15-12-27-27-27h-71c-87 0-140-17-173-50-33-32-50-86-50-173v-214c0-87 17-140 50-173 33-33 86-50 173-50h214c87 0 141 17 173 50 33 33 50 86 50 173v71c0 15 12 27 27 27 15 0 27-12 27-27v-71c0-92-18-163-66-211-48-48-119-66-211-66h-214c-92 0-163 18-211 66-48 48-66 119-66 211z" horiz-adv-x="1000" />

<glyph glyph-name="team-grid" unicode="&#xe822;" d="M890 475c0 102-21 166-60 205-39 39-103 60-205 60h-250c-101 0-166-21-205-60-39-39-60-103-60-205v-250c0-101 21-166 60-205 39-39 104-60 205-60h250c102 0 166 21 205 60 39 39 60 104 60 205v250z m53-250c0-107-21-188-75-243-54-54-136-75-243-75h-250c-107 0-188 21-243 75-54 55-75 136-75 243v250c0 107 21 189 75 243 55 54 136 76 243 76h250c107 0 189-22 243-76 54-54 75-136 75-243v-250z m-470-292v834c0 15 12 27 27 27 15 0 27-12 27-27v-834c0-15-12-26-27-26-15 0-27 11-27 26z m27 548c15 0 27-12 27-27 0-15-12-27-27-27h-417c-14 0-26 12-26 27 0 15 12 27 26 27h417z m417-208c15 0 27-12 27-27 0-15-12-27-27-27h-417c-15 0-27 12-27 27 0 15 12 27 27 27h417z" horiz-adv-x="1000" />

<glyph glyph-name="tab" unicode="&#xe823;" d="M890 642c0 54-44 98-98 98-55 0-99-44-99-98 0-55 44-98 99-98 54 0 98 43 98 98z m53 0c0-84-67-152-151-152-84 0-152 68-152 152 0 84 68 152 152 152 84 0 151-68 151-152z m-443-307c15 0 27-12 27-27 0-14-12-26-27-26h-208c-15 0-27 12-27 26 0 15 12 27 27 27h208z m167-166c15 0 26-12 26-27 0-15-11-27-26-27h-375c-15 0-27 12-27 27 0 15 12 27 27 27h375z m-610 56v250c0 107 21 189 75 243 55 54 136 76 243 76h208c15 0 27-12 27-27 0-15-12-27-27-27h-208c-101 0-166-21-205-60-39-39-60-103-60-205v-250c0-101 21-166 60-205 39-39 104-60 205-60h250c102 0 166 21 205 60 39 39 60 104 60 205v208c0 15 12 27 27 27 15 0 26-12 26-27v-208c0-107-21-188-75-243-54-54-136-75-243-75h-250c-107 0-188 21-243 75-54 55-75 136-75 243z" horiz-adv-x="1000" />

<glyph glyph-name="team-slider" unicode="&#xe824;" d="M265 323h-72c-37 0-55-7-65-17-10-10-18-29-18-66v-197c0-37 8-55 18-65 10-10 28-18 65-18h197c37 0 56 8 66 18 10 10 17 28 17 65v72h-72c-42 0-78 8-103 33-25 25-33 62-33 103v72z m53-72c0-36 8-55 18-65 10-10 29-17 65-17h99c15 0 27-12 27-27v-99c0-42-8-78-33-103-26-25-62-34-104-34h-197c-42 0-78 9-103 34-25 25-33 61-33 103v197c0 42 8 78 33 104 25 25 61 33 103 33h99c15 0 26-12 26-27v-99z m155 281h-72c-36 0-55-8-65-18-10-10-18-28-18-65v-198c0-36 8-55 18-65 10-10 29-18 65-18h198c36 0 55 8 65 18 10 10 18 29 18 65v72h-73c-41 0-78 8-103 34-25 25-33 61-33 103v72z m54-72c0-37 7-55 17-66 10-10 29-17 65-17h99c15 0 27-12 27-27v-99c0-41-8-78-33-103-25-25-61-33-103-33h-198c-42 0-78 8-103 33-25 25-33 62-33 103v198c0 42 8 78 33 103 25 25 61 33 103 33h99c15 0 27-12 27-27v-98z m363 198c0 36-7 54-18 64-10 10-28 18-65 18h-198c-36 0-55-7-65-18-10-10-17-28-17-64v-198c0-37 7-56 17-66 10-10 29-17 65-17h198c37 0 55 7 65 17 10 11 18 29 18 66v198z m54-198c0-42-9-78-34-103-25-26-61-34-103-34h-198c-41 0-78 8-103 34-25 25-33 61-33 103v198c0 41 8 77 33 102 25 25 62 34 103 34h198c42 0 78-9 103-34 25-25 34-61 34-102v-198z" horiz-adv-x="1000" />

<glyph glyph-name="testimonials-grid" unicode="&#xe825;" d="M420 632c0 24-5 34-10 38-6 5-17 10-43 10h-144c-26 0-38-5-43-10-5-4-10-14-10-38v-564c0-24 5-34 10-38 5-5 17-10 43-10h144c26 0 37 5 43 10 5 4 10 14 10 38v564z m53-564c0-30-6-58-27-77-20-19-48-25-79-25h-144c-31 0-60 6-80 25-21 19-27 47-27 77v564c0 30 6 58 27 77 20 19 49 25 80 25h144c31 0 59-6 79-25 21-19 27-47 27-77v-564z m357 564c0 24-5 34-10 38-5 5-16 10-42 10h-145c-26 0-37-5-43-10-4-4-10-14-10-38v-243c0-23 6-33 10-38 6-5 17-10 43-10h145c26 0 37 5 42 10 5 5 10 15 10 38v243z m54-243c0-29-6-57-27-77-20-19-49-24-79-24h-145c-30 0-59 5-79 24-21 20-27 48-27 77v243c0 30 6 58 27 77 20 19 49 25 79 25h145c30 0 59-6 79-25 21-19 27-47 27-77v-243z m-54-257c0 24-5 34-10 38-5 5-16 10-42 10h-145c-26 0-37-5-43-10-4-4-10-14-10-38v-64c0-24 6-34 10-38 6-5 17-10 43-10h145c26 0 37 5 42 10 5 4 10 14 10 38v64z m54-64c0-30-6-58-27-77-20-19-49-25-79-25h-145c-30 0-59 6-79 25-21 19-27 47-27 77v64c0 30 6 58 27 77 20 19 49 25 79 25h145c30 0 59-6 79-25 21-19 27-47 27-77v-64z" horiz-adv-x="1000" />

<glyph glyph-name="testimonials-slider" unicode="&#xe826;" d="M214 650c-47 0-85-38-85-86v-200c0-47 38-85 85-85h572c47 0 85 38 85 85v200c0 48-38 86-85 86h-572z m-143-86c0 79 64 143 143 143h572c79 0 143-64 143-143v-200c0-79-64-143-143-143h-572c-79 0-143 64-143 143v200z m143-428c0 16 13 28 29 28h514c16 0 29-12 29-28 0-16-13-29-29-29h-514c-16 0-29 13-29 29z m86-115c0 16 13 29 29 29h342c16 0 29-13 29-29 0-15-13-28-29-28h-342c-16 0-29 13-29 28z" horiz-adv-x="1000" />

<glyph glyph-name="timeline-slider" unicode="&#xe827;" d="M244-67v292c0 15 12 27 27 27 15 0 27-12 27-27v-292c0-15-12-27-27-27-15 0-27 12-27 27z m0 709v125c0 15 12 27 27 27 15 0 27-12 27-27v-125c0-15-12-27-27-27-15 0-27 12-27 27z m458-709v125c0 15 12 27 27 27 15 0 27-12 27-27v-125c0-15-12-27-27-27-15 0-27 12-27 27z m0 542v292c0 15 12 27 27 27 15 0 27-12 27-27v-292c0-15-12-27-27-27-15 0-27 12-27 27z m-333 83c0 20-4 33-12 42-6 7-19 15-44 15h-84c-26 0-38-8-45-15-7-9-11-22-11-42v-250c0-19 4-33 11-41 7-8 19-15 45-15h84c25 0 38 7 44 15 8 8 12 22 12 41v250z m54-250c0-26-6-54-25-76-19-22-49-34-85-34h-84c-37 0-66 12-85 34-19 22-25 50-25 76v250c0 27 6 55 25 77 19 22 48 34 85 34h84c36 0 66-12 85-34 19-22 25-50 25-77v-250z m404 84c0 19-4 33-11 41-7 8-19 15-45 15h-83c-26 0-39-7-45-15-8-8-12-22-12-41v-250c0-20 4-33 12-42 6-7 19-15 45-15h83c26 0 38 8 45 15 7 9 11 22 11 42v250z m54-250c0-27-6-55-25-77-19-22-48-33-85-33h-83c-37 0-66 11-86 33-19 22-25 50-25 77v250c0 26 6 54 25 76 20 23 49 34 86 34h83c37 0 66-11 85-34 19-22 25-50 25-76v-250z" horiz-adv-x="1000" />

<glyph glyph-name="video" unicode="&#xe828;" d="M890 475c0 102-21 166-60 205-39 39-103 60-205 60h-250c-101 0-166-21-205-60-39-39-60-103-60-205v-250c0-101 21-166 60-205 39-39 104-60 205-60h250c102 0 166 21 205 60 39 39 60 104 60 205v250z m53-250c0-107-21-188-75-243-54-54-136-75-243-75h-250c-107 0-189 21-243 75-54 55-75 136-75 243v250c0 107 21 189 75 243 54 54 136 76 243 76h250c107 0 189-22 243-76 54-54 75-136 75-243v-250z m-540 291c31 18 70 14 107-5l8-4 0 0 106-62c40-22 65-56 65-95 0-39-25-73-65-95l0 0-106-62c-40-23-82-28-115-8-34 19-51 58-51 103v124c0 45 17 84 51 104z m3-228c0-33 12-50 23-57 11-6 30-8 56 6l6 3 106 61 0 0c30 17 39 36 39 49 0 13-9 32-39 49l0 0-106 62c-30 17-50 15-62 8-11-6-23-23-23-57v-124z" horiz-adv-x="1000" />

<glyph glyph-name="author" unicode="&#xe829;" d="M852 493c0 37-20 71-52 90l-248 143-6 3c-31 16-68 14-98-3l-248-143c-32-19-52-53-52-90v-285c0-38 20-72 52-91l248-143 6-3c31-16 68-14 98 3l248 143c32 19 52 54 52 91v285z m53-285c0-57-30-109-78-137l-1 0-247-143c-49-29-109-28-158 0l0 0-248 143c-48 28-78 80-78 137v285c0 56 30 108 78 136l0 1 248 142c49 29 109 28 158 0l0 0 247-142 1-1c48-28 78-80 78-136v-285z m-335 281c0 39-31 70-70 70-39 0-70-31-70-70 0-39 31-70 70-70 39 0 70 31 70 70z m54 0c0-69-56-124-124-124-68 0-124 55-124 124 0 68 56 124 124 124 68 0 124-56 124-124z m16-333c0 55-57 109-140 109-83 0-140-54-140-109 0-15-12-27-27-27-14 0-26 12-26 27 0 95 92 163 193 163 102-1 193-68 193-163 0-15-11-27-26-27-15 0-27 12-27 27z" horiz-adv-x="1000" />

<glyph glyph-name="breadcumb" unicode="&#xe82a;" d="M479 523c15 0 27-12 27-27 0-15-12-27-27-27h-396c-15 0-27 12-27 27 0 15 12 27 27 27h396z m-146-334c15 0 27-12 27-26 0-15-12-27-27-27h-83c-15 0-27 12-27 27 0 14 12 26 27 26h83z m271 0c15 0 27-12 27-26 0-15-12-27-27-27h-167c-14 0-26 12-26 27 0 14 12 26 26 26h167z m-548-10v342c0 73 9 130 45 166 37 35 93 44 167 44h336c15 0 27-12 27-27 0-15-12-27-27-27h-336c-74 0-110-9-129-28-19-19-29-54-29-128v-342c0-73 10-109 29-127 19-19 55-29 129-29h464c74 0 109 10 129 29 19 18 29 54 29 127v170c0 15 12 27 27 27 14 0 26-12 26-27v-170c0-73-8-130-45-166-36-36-93-44-166-44h-464c-74 0-130 8-167 44-36 36-45 93-45 166z m780 550c27 3 52-9 75-33 23-23 35-47 32-74-2-25-17-45-32-60l-155-155c-5-5-12-10-19-13-6-3-14-6-21-7l-1 0-59-8h0c-18-3-36 2-48 15-13 12-18 30-15 48v0l8 59 0 1c1 7 4 15 7 21 3 7 8 14 13 19l155 155c15 15 35 30 60 32z m5-53c-7-1-15-5-27-17l-155-155c0 0 0 0-1-1 0-1-1-2-2-4-1-1-1-2-2-3 0-1 0-2 0-2 0 0 0 0 0 0 0 0 0 0 0 0l-8-59c-1-2 0-3 0-3 0 0 0 0 1-1l2 1 59 8c0 0 0 0 0 0 0 0 0 0 0 0 1 0 1 0 2 0 1 1 2 1 3 2 2 1 3 1 4 2 1 1 1 1 1 1l155 155c12 12 16 20 17 27 1 5-1 15-17 32-16 16-27 17-32 17z m-75 6c14 4 29-5 33-19 10-38 40-68 78-78 14-4 22-19 18-33-4-14-18-23-33-19-55 16-99 60-115 116-4 14 4 29 19 33z" horiz-adv-x="1000" />

<glyph glyph-name="button" unicode="&#xe82b;" d="M77 246v208c0 71 7 126 33 166 28 41 72 59 130 65v0c23 3 47 4 73 4h144c15 0 26-12 26-26 0-15-11-27-26-27h-144c-26 0-47-1-66-4 0 0 0 0-1 0-51-5-76-20-91-42-16-25-24-66-24-136v-208c0-70 8-111 24-136 15-22 40-36 91-42 1 0 1 0 1 0 19-3 40-4 66-4h146c15 0 27-12 27-26 0-15-12-27-27-27h-146c-26 0-50 1-73 4-58 6-102 24-130 66-26 39-33 94-33 165z m792 0v208c0 70-8 111-24 136-15 22-40 37-91 42 0 0-1 0-1 0-19 3-40 4-65 4h-62c-15 0-27 12-27 27 0 14 12 26 27 26h62c25 0 50-1 72-4l0 0c0 0 0 0 1 0l-1 0c58-6 102-24 130-65 26-40 33-95 33-166v-208c0-71-7-126-33-165-28-42-72-60-130-66 0 0 0 0 0 0 0 0 0 0 0 0l0 0c-22-3-47-4-72-4h-62c-15 0-27 12-27 27 0 14 12 26 27 26h62c25 0 46 1 65 4l1 0c51 6 76 20 91 42 16 25 24 66 24 136z m-271-313v834c0 15 12 27 27 27 15 0 27-12 27-27v-834c0-14-12-26-27-26-15 0-27 12-27 26z m-291 271v292c0 15 12 27 26 27 15 0 27-12 27-27v-292c0-15-12-27-27-27-14 0-26 12-26 27z" horiz-adv-x="1000" />

<glyph glyph-name="canvas" unicode="&#xe82c;" d="M848 740h-697v-477l1-13c2-28 11-47 23-59 13-13 36-22 71-22h508c35 0 57 9 71 22 14 14 23 36 23 72v477z m53-477c0-44-11-83-38-109-27-27-65-39-109-39h-508c-44 0-82 12-109 38-27 27-39 65-39 109v505c0 15 12 27 27 27h750c14 0 26-12 26-27v-504z m16 531c15 0 26-12 26-27 0-15-11-27-26-27h-834c-14 0-26 12-26 27 0 15 12 27 26 27h834z m-444-652c0 15 12 27 27 27 15-1 27-12 27-27v-125c0-10-6-20-15-24l-167-84c-13-6-29-1-36 12-6 14-1 30 12 36l152 76v109z m3-113c7 13 23 18 36 12l167-84c13-6 18-22 12-36-7-13-23-18-36-12l-167 84c-13 6-19 22-12 36z m194 508c12 10 29 8 38-3 10-11 8-28-3-38l-132-109c0-1 0-1 0-1-11-8-24-12-38-10-14 2-26 11-33 23l0 0-46 77-126-105c-12-9-29-8-38 4-9 11-8 28 3 37l132 110v0c10 9 24 13 38 11 12-3 23-9 30-19l3-4 0 0 46-78 126 105z" horiz-adv-x="1000" />

<glyph glyph-name="clients-logo-grid" unicode="&#xe82d;" d="M830 457c0 87-17 141-50 173-32 33-86 50-173 50h-214c-87 0-140-17-173-50-33-32-50-86-50-173v-214c0-87 17-140 50-173 33-33 86-50 173-50h214c87 0 141 17 173 50 33 33 50 86 50 173v214z m54-214c0-92-18-163-66-211-48-48-119-66-211-66h-214c-92 0-163 18-211 66-48 48-66 119-66 211v214c0 92 18 163 66 211 48 48 119 66 211 66h214c92 0 163-18 211-66 48-48 66-119 66-211v-214z m-27 259c15 0 27-12 27-27 0-15-12-27-27-27h-713c-15 0-27 12-27 27 0 15 12 27 27 27h713z m0-250c15 0 27-12 27-27 0-15-12-27-27-27h-713c-15 0-27 12-27 27 0 15 12 27 27 27h713z m-508-259v714c0 15 12 27 26 27 15 0 27-12 27-27v-714c0-15-12-27-27-27-14 0-26 12-26 27z m250 0v714c0 15 12 27 26 27 15 0 27-12 27-27v-714c0-15-12-27-27-27-14 0-26 12-26 27z" horiz-adv-x="1000" />

<glyph glyph-name="extension" unicode="&#xe82e;" d="M297 651c-2 47 11 87 46 117 25 20 53 30 85 30 25 0 48-7 69-21 21-13 36-31 47-54 11-22 12-46 12-72 4 0 8 0 11 0 38 0 77 0 115 0 70 0 119-50 119-119 0-38 0-76 0-114 0-4 0-7 0-12 49 3 90-12 120-51 20-26 29-55 26-88-2-37-18-67-46-91-29-23-62-31-100-29 0-4 0-8 0-11 0-38 0-77 0-115 0-69-49-119-118-119-52 0-103 0-154 0-24 0-36 12-36 35 0 17 1 34-1 51-2 28-20 50-47 58-27 8-51 0-70-21-11-12-16-27-16-43 0-16 0-32 0-47 0-20-12-33-32-33-54 0-107-1-161 0-65 1-113 50-114 115-1 53 0 106 0 160 0 20 13 32 33 32 20 1 39-1 58 2 34 5 57 34 56 68-1 33-27 61-61 63-17 2-34 1-51 1-23 0-35 12-35 35 0 52-1 103 0 155 0 69 49 118 118 118 38 0 76 0 115 0 4 0 8 0 12 0z m0-686c-7 86 57 143 122 146 33 2 62-7 87-27 38-31 52-71 50-119 4 0 8 0 11 0 38 0 75 0 113 0 38 0 58 20 58 58 0 51 0 102 0 153 0 21 13 33 33 34 10 0 19-1 29 0 12 0 25 0 36 2 33 8 52 38 49 72-3 31-28 56-60 58-17 2-33 1-50 1-25 0-36 12-36 37 0 50 0 100 0 151 0 36-22 57-58 57-50 0-101 0-152 0-23 0-35 12-36 36 0 16 1 32 0 48-2 36-30 62-65 63-35 1-64-24-68-60-1-14-1-28 0-42 2-35-15-46-45-45-48 1-96 1-144 0-35 0-56-21-56-56 0-39 0-77 0-116 0-3 0-6 0-10 88 8 145-61 147-125 0-32-9-62-30-87-30-36-70-49-117-47 0-4 0-7 0-9 0-39 0-79 0-118 0-34 21-55 55-55 30 0 61 0 91 0 12 0 23 0 36 0z" horiz-adv-x="1000" />

<glyph glyph-name="home" unicode="&#xe82f;" d="M590 112c0 15-13 28-29 28h-120c-16 0-28-13-28-28v-128c0-2-1-5-1-8-4-42-40-74-83-74h-80c-97 0-176 78-176 175v363l0 8c3 37 22 72 52 95l273 220 0 0c56 44 133 47 192 8l11-8 0 0 274-219h0c32-25 52-63 52-103v-364c0-97-79-175-176-175h-81c-44 1-80 37-80 82v128z m62-128c0-10 9-19 20-19h79c63 0 114 50 114 112v363c-1 21-11 41-28 55 0 0-1 0-1 0l-274 219v0c-36 29-89 29-125 0l0 0-273-219c0 0-1-1-1-1-17-13-27-33-28-55v-362c0-62 51-112 114-112h80c12 0 21 9 21 19h0v128c0 50 41 90 91 91h120c50 0 91-40 91-91v-128z" horiz-adv-x="1000" />

<glyph glyph-name="image-horizontal-scroll" unicode="&#xe830;" d="M458 740c-70 0-111-8-135-24-23-15-37-40-43-91 0-1 0-1 0-1-2-19-3-40-3-66l0-416c0-26 1-47 3-66 0 0 0 0 0-1 6-51 20-76 43-91 24-16 65-24 135-24l84 0c70 0 111 8 136 24 22 15 36 40 42 91 0 1 0 1 0 1 2 19 3 40 3 66l0 416c0 26-1 47-3 66l0 1c-6 51-20 76-42 91-25 16-66 24-136 24l-84 0z m84 53c70 0 126-7 165-32 41-28 59-72 66-130 0 0 0 0 0 0 0 0 0 0 0-1l0 0c3-22 4-46 4-72l0-416c0-26-1-50-4-72-7-59-24-103-66-131-39-25-95-33-165-33l-84 0c-70 0-126 8-165 33-42 28-59 72-66 131l0 0c-3 22-4 46-4 72l0 416c0 26 1 50 4 72l0 0c0 1 0 1 0 1l0 0c7 58 25 102 66 130 39 25 95 32 165 32l84 0z m234-192c0-13 1-28 1-43l0-416c0-15-1-29-1-43l2 0c56 0 80 8 92 20 12 12 20 37 20 92l0 278c0 56-8 80-20 92-12 13-36 20-92 20l-2 0z m2 54c55 0 100-7 130-36 29-29 35-75 35-130l0-278c0-55-6-101-35-130-30-29-75-36-130-36l-14 0c-6 0-13 0-20 1l-2 0c-7 1-12 5-17 10-4 6-6 13-5 20 2 19 3 40 3 66l0 416c0 26-1 47-3 66-1 7 1 15 5 20 5 6 12 10 19 10 7 1 14 1 20 1l14 0z m-556-54c-55 0-80-7-92-20-12-12-20-36-20-92l0-278c0-55 8-80 20-92 12-12 37-20 92-20l2 0c0 14-1 28-1 43l0 416c0 15 1 30 1 43l-2 0z m14 54c6 0 13 0 20-1 7 0 14-4 19-10 4-5 6-13 5-20-2-19-3-40-3-66l0-416c0-26 1-47 3-66 1-7-1-14-5-20-5-6-12-10-19-10-7-1-14-1-20-1l-14 0c-55 0-100 7-130 36-29 29-35 75-35 130l0 278c0 55 6 101 35 130 30 29 75 36 130 36l14 0z" horiz-adv-x="1000" />

<glyph glyph-name="widgets" unicode="&#xe831;" d="M885 684c0 26-5 35-11 40-6 6-20 11-50 11h-169c-30 0-44-5-50-11-5-5-11-14-11-40v-189c0-25 6-35 11-40 6-5 20-11 50-11h169c31 0 44 6 50 11 6 5 11 15 11 40v189z m63-189c0-33-8-65-32-87-24-21-57-26-92-26l-169 0c-35 0-68 6-92 27-24 21-32 53-32 86v189c0 34 8 65 32 87 24 21 57 27 92 27h169c35 0 68-6 92-27 24-22 32-53 32-87v-189z m-63-300c0 30-6 43-12 49-6 6-19 12-49 12h-169c-30 0-43-6-49-12-6-6-12-19-12-49v-169c0-30 6-43 12-49 6-6 19-12 49-12h169c30 0 43 6 49 12 6 6 12 19 12 49v169z m63-169c0-36-7-70-31-93-23-24-57-31-93-31h-169c-36 0-69 7-93 31-24 23-31 57-31 93v169c0 36 7 69 31 93 24 24 57 31 93 31h169c36 0 70-7 93-31 24-24 31-57 31-93v-169z m-542 658c0 26-5 35-11 40-6 6-20 11-50 11h-169c-30 0-44-5-50-11-6-5-11-14-11-40v-189c0-25 5-35 11-40 6-5 20-11 50-11h169c30 0 44 6 50 11 5 5 11 15 11 40v189z m63-189c0-33-8-65-32-87-24-21-57-26-92-26l-169 0c-35 0-68 6-92 27-24 21-32 53-32 86v189c0 34 8 65 32 87 24 21 57 27 92 27h169c35 0 68-6 92-27 24-22 32-53 32-87v-189z m-63-300c0 30-6 43-12 49-6 6-19 12-49 12h-169c-30 0-43-6-49-12-6-6-12-19-12-49v-169c0-30 6-43 12-49 6-6 19-12 49-12h169c30 0 43 6 49 12 6 6 12 19 12 49v169z m63-169c0-36-7-70-31-93-24-24-57-31-93-31h-169c-36 0-69 7-93 31-24 23-31 57-31 93v169c0 36 7 69 31 93 24 24 57 31 93 31h169c36 0 69-7 93-31 24-24 31-57 31-93v-169z" horiz-adv-x="1000" />

<glyph glyph-name="document" unicode="&#xe832;" d="M606 185c19 0 35-16 35-36 0-20-16-36-35-36h-344c-20 0-36 16-36 36 0 20 16 36 36 36h344z m0 199c19 0 35-16 35-36 0-19-16-35-35-35h-344c-20 0-36 16-36 35 0 20 16 36 36 36h344z m-213 199c20 0 36-16 36-36 0-20-16-35-36-36h-131c-20 0-36 16-36 36 0 20 16 36 36 36h131z m401-12c0 59-18 104-48 135-29 30-73 49-131 49h-57c-35 0-80 0-126 0-90 0-179 0-183 0-58-1-101-20-130-50-30-30-48-75-48-134v-438c0-59 19-104 48-134 29-31 73-50 131-50h57c35 0 80 1 126 1 89 0 178 0 183 0l21 1c48 4 84 22 110 48 29 31 47 76 47 134v438z m71-438c0-73-23-137-67-183-45-47-108-71-181-72h-58c-34 0-80 0-126 0-46 0-91 0-126 0h-57c-74 0-137 25-182 71-45 46-68 111-68 184v438c0 73 23 138 67 184 45 46 108 71 181 71h16c10 0 25 0 42 0 34 0 80 0 126 0 46 0 91 0 126 0h57l14 0c68-3 126-27 168-71 45-46 68-110 68-184v-438z" horiz-adv-x="929" />

<glyph glyph-name="monitor" unicode="&#xe833;" d="M885 318v264c0 74-10 108-27 126-18 17-52 27-127 27h-463c-74 0-108-10-125-27-18-18-28-52-28-126v-264c0-75 10-108 28-126 17-18 51-28 125-28h464c74 0 108 10 126 28 17 18 27 52 27 126z m63 0c0-74-9-133-46-170-38-38-97-46-170-46h-464v0c-73 0-132 8-170 46-37 37-46 96-46 170v264c0 73 9 132 46 170 38 37 97 46 170 46h463c74 0 133-9 171-46 37-38 46-97 46-170v-264z m-479-385v200c0 17 14 31 31 31 17 0 31-14 31-31v-200c0-17-14-31-31-31-17 0-31 14-31 31z m448 407c17 0 31-14 31-32 0-17-14-31-31-31h-834c-17 0-31 14-31 31 0 18 14 32 31 32h834z m-229-375c17 0 31-14 31-32 0-17-14-31-31-31h-375c-18 0-32 14-32 31 0 18 14 32 32 32h375z" horiz-adv-x="1000" />

<glyph glyph-name="notification" unicode="&#xe834;" d="M806 246l-42 69c-9 16-16 45-16 62v106c0 97-58 182-141 222-22 38-62 62-107 62-46 0-87-25-108-64-82-40-138-124-138-220v-106c0-17-8-46-16-61l-43-70c-16-28-20-58-10-87 10-28 34-49 65-60 81-27 166-41 251-41 85 0 170 14 251 41 29 9 51 31 62 60 11 29 8 61-8 87z m-188-230c-18-48-64-83-118-83-33 0-65 14-88 37-14 13-24 30-29 47 5-1 10-2 16-2 10-2 20-3 30-4 24-2 48-3 72-3 24 0 47 1 71 3 8 1 17 2 26 3 6 1 13 1 20 2z" horiz-adv-x="1000" />

<glyph glyph-name="messages" unicode="&#xe835;" d="M550 600h-267c-11 0-21 0-31-2-112-9-169-75-169-198v-166c0-167 67-200 200-200h17c9 0 21-6 26-13l50-67c22-29 58-29 80 0l50 67c7 8 17 13 27 13h17c122 0 188 56 198 169 1 10 1 20 1 31v166c0 133-66 200-199 200z m-279-333c-23 0-42 18-42 41 0 23 19 42 42 42 23 0 42-19 42-42 0-23-19-41-42-41z m145 0c-23 0-41 18-41 41 0 23 18 42 41 42 23 0 42-19 42-42 0-23-18-41-42-41z m146 0c-23 0-42 18-42 41 0 23 19 42 42 42 23 0 42-19 42-42 0-23-19-41-42-41z m354 300v-167c0-83-26-140-78-171-12-7-27 3-27 17l1 154c0 167-96 263-262 263l-254-1c-15 0-25 15-17 27 31 52 88 78 171 78h266c133 0 200-67 200-200z" horiz-adv-x="1000" />

<glyph glyph-name="sms-tracking" unicode="&#xe836;" d="M250 308c-115 0-208-93-208-208 0-115 93-208 208-208 115 0 208 93 208 208 0 115-93 208-208 208z m-85-123h85c16 0 28-13 28-28 0-16-12-29-28-29h-85c-16 0-28 13-28 29 0 15 12 28 28 28z m170-170h-170c-16 0-28 13-28 28 0 16 13 29 28 29h170c16 0 29-13 29-29 0-15-13-28-29-28z m373 710h-416c-125 0-209-62-209-208v-131c0-31 32-50 60-38 45 20 97 28 152 19 109-18 198-104 220-212 7-32 8-63 3-92-3-25 17-47 42-47h148c125 0 209 63 209 209v292c0 146-84 208-209 208z m20-233l-130-104c-28-22-63-33-98-33-35 0-70 11-97 33l-131 104c-13 11-15 31-5 44 11 14 31 16 44 5l130-104c32-25 86-25 117 0l131 104c13 11 33 9 44-5 10-13 8-33-5-44z" horiz-adv-x="1000" />

<glyph glyph-name="video-tick" unicode="&#xe837;" d="M916 198c-34 42-86 69-145 69-44 0-85-16-117-42-44-34-71-87-71-146 0-35 10-68 27-97 12-18 26-35 43-48h0c32-27 73-42 118-42 47 0 90 17 123 46 15 13 27 28 37 44 17 29 27 62 27 97 0 45-15 87-42 119z m-51-95l-100-93c-6-5-14-8-21-8-8 0-16 3-22 9l-47 46c-12 12-12 32 0 44 13 12 33 12 45 0l25-25 78 72c12 12 32 11 44-1 12-13 11-33-2-44z m-251 503v140c0 12-9 21-21 21h-186c-12 0-21-9-21-21v-140c0-12 9-21 21-21h186c12 0 21 9 21 21z m-312 160c-107-7-179-62-207-153-4-14 6-28 20-28h188c12 0 21 9 21 21v139c0 12-10 22-22 21z m396 0c107-6 180-61 207-153 4-14-6-28-20-28h-188c-12 0-21 10-21 21v139c0 12 10 22 22 21z m219-264v-183c0-15-17-25-30-18-35 18-75 28-116 28-67 0-133-27-179-75-46-47-71-109-71-175 0-34 13-77 30-113 7-15-3-33-20-33h-206c-133 0-242 109-242 242v327c0 11 10 21 21 21h792c12 0 21-10 21-21z" horiz-adv-x="1000" />

<glyph glyph-name="crown" unicode="&#xe838;" d="M708-67h-416c-17 0-32 14-32 32 0 17 15 31 32 31h416c17 0 32-14 32-31 0-18-15-32-32-32z m140 687l-167-119c-22-16-53-6-63 19l-79 210c-13 36-64 36-78 0l-79-209c-9-26-41-36-63-20l-166 120c-34 23-78-10-64-49l173-485c6-17 22-28 39-28h397c18 0 34 12 40 28l173 485c14 39-30 72-63 48z m-244-384h-208c-17 0-31 14-31 31 0 17 14 31 31 31h208c17 0 31-14 31-31 0-17-14-31-31-31z" horiz-adv-x="1000" />

<glyph glyph-name="tick-square" unicode="&#xe839;" d="M675 767h-350c-151 0-242-91-242-242v-349c0-152 91-243 242-243h349c152 0 242 91 242 242v350c1 151-90 242-241 242z m24-321l-236-236c-6-6-14-10-22-10-8 0-16 4-22 10l-118 118c-12 12-12 32 0 44 12 12 32 12 44 0l96-96 214 214c12 12 32 12 44 0 12-12 12-32 0-44z" horiz-adv-x="1000" />

<glyph glyph-name="navigation" unicode="&#xe83a;" d="M625-98h-250c-226 0-323 97-323 323v250c0 226 97 323 323 323h250c226 0 323-97 323-323v-250c0-226-97-323-323-323z m-250 833c-192 0-260-68-260-260v-250c0-192 68-260 260-260h250c192 0 260 68 260 260v250c0 192-68 260-260 260h-250z m333-208h-145c-18 0-32 14-32 31 0 17 14 32 32 32h145c17 0 32-15 32-32 0-17-15-31-32-31z m-287-10c-23 0-42 18-42 41 0 23 19 42 42 42h0c23 0 42-19 42-42 0-23-19-41-42-41z m-125 0c-23 0-42 18-42 41 0 23 19 42 42 42 23 0 42-19 42-42 0-23-19-41-42-41z m433-422h-77c-17 0-31 14-31 31 0 17 14 32 31 32h77c17 0 31-15 31-32 0-17-14-31-31-31z m-189 0h-269c-17 0-31 14-31 31 0 17 14 32 31 32h269c18 0 32-15 32-32 0-17-14-31-32-31z m189 157h-230c-17 0-31 14-31 31 0 17 14 31 31 31h230c17 0 31-14 31-31 0-17-14-31-31-31z m-343 0h-115c-17 0-31 14-31 31 0 17 14 31 31 31h115c17 0 32-14 32-31 0-17-15-31-32-31z" horiz-adv-x="1000" />

<glyph glyph-name="filterable-gallery" unicode="&#xe83b;" d="M375 402c-63 0-115 51-115 115 0 63 52 114 115 114 63 0 115-51 115-114 0-64-52-115-115-115z m0 167c-29 0-52-24-52-52 0-29 23-52 52-52 29 0 52 23 52 52 0 28-23 52-52 52z m250-667h-250c-226 0-323 97-323 323v250c0 226 97 323 323 323h167c17 0 31-14 31-31 0-17-14-32-31-32h-167c-192 0-260-68-260-260v-250c0-192 68-260 260-260h250c192 0 260 68 260 260v208c0 17 15 32 32 32 17 0 31-15 31-32v-208c0-226-97-323-323-323z m-514 127c-10 0-20 5-26 14-9 14-5 34 9 43l206 138c45 31 107 27 148-8l13-12c21-18 57-18 77 0l173 149c44 38 114 38 159 0l68-58c12-12 14-31 3-45-11-12-31-14-44-3l-68 58c-21 18-56 18-77 0l-174-148c-44-38-113-38-158 0l-14 12c-19 16-51 18-72 3l-205-138c-6-3-12-5-18-5z m809 704c13 0 23-10 23-23 0-13-10-23-23-23h-268c-13 0-23 10-23 23 0 13 10 23 23 23h268z m-45-89c13 0 23-10 23-23 0-13-10-23-23-23h-179c-12 0-23 10-23 23 0 13 11 23 23 23h179z m-59-89c12 0 23-11 23-23 0-13-11-24-23-24h-60c-13 0-23 11-23 24 0 12 10 23 23 23h60z" horiz-adv-x="1000" />

<glyph glyph-name="scroll-top" unicode="&#xe83c;" d="M499-98c-247 0-448 201-448 448 0 247 201 448 448 448 246 0 448-201 448-448 0-247-201-448-448-448z m0 833c-213 0-386-172-386-385 0-212 173-385 386-385 212 0 385 173 385 385 0 213-173 385-385 385z m128-334l-127 126-126-126m126-228v351" horiz-adv-x="1000" />

<glyph glyph-name="advance-search" unicode="&#xe83d;" d="M455-98c-20 0-40 5-58 15-37 21-59 58-59 100v223c0 21-14 53-27 69l-158 166c-26 26-47 72-47 106v97c0 67 51 119 116 119h556c63 0 115-52 115-115v-93c0-44-26-94-51-119-12-12-32-12-44 0-13 13-13 33 0 45 15 15 32 50 32 74v93c0 29-23 53-52 53h-556c-30 0-53-25-53-57v-97c0-16 12-46 29-62l160-169c21-26 42-70 42-110v-223c0-27 19-41 27-45 18-10 39-10 56 0l58 38c12 7 24 30 24 45 0 17 14 31 31 31 17 0 32-14 32-31 0-37-24-80-53-98l-58-38c-19-11-40-17-62-17z m215 228c-91 0-165 74-165 165 0 91 74 165 165 165 90 0 164-74 164-165 0-91-74-165-164-165z m0 267c-57 0-102-46-102-102 0-56 45-102 102-102 56 0 102 46 102 102 0 56-46 102-102 102z m158-292c-8 0-16 3-22 10l-42 41c-12 12-12 32 0 44 12 13 32 13 44 0l42-41c12-12 12-32 0-44-6-6-14-10-22-10z" horiz-adv-x="1000" />

<glyph glyph-name="protected-content" unicode="&#xe83e;" d="M500-98c-45 0-90 13-126 39l-179 134c-47 35-85 110-85 168v310c0 65 48 133 108 155l208 78c41 16 106 16 147 0l208-78c61-22 108-90 108-155v-309c0-59-37-133-85-169l-179-133c-35-27-80-40-125-40z m-52 826l-208-78c-35-14-67-59-67-97v-310c0-39 28-95 60-118l179-134c48-36 128-36 177 0l179 134c32 24 59 79 59 118v310c0 38-31 83-67 97l-207 78c-29 10-77 10-105 0z m-4-471c-8 0-16 3-22 9l-67 67c-12 12-12 32 0 45 12 12 32 12 44 0l45-45 157 157c12 12 32 12 44 0 13-12 13-32 0-45l-179-179c-6-6-14-9-22-9z" horiz-adv-x="1000" />

<glyph glyph-name="contact-form" unicode="&#xe83f;" d="M625-98h-250c-226 0-323 97-323 323v250c0 226 97 323 323 323h250c226 0 323-97 323-323v-250c0-226-97-323-323-323z m-250 833c-192 0-260-68-260-260v-250c0-192 68-260 260-260h250c192 0 260 68 260 260v250c0 192-68 260-260 260h-250z m354-628h-77c-17 0-31 14-31 31 0 17 14 32 31 32h77c17 0 31-15 31-32 0-17-14-31-31-31z m-189 0h-269c-17 0-31 14-31 31 0 17 14 32 31 32h269c18 0 32-15 32-32 0-17-14-31-32-31z m189 157h-230c-17 0-31 14-31 31 0 17 14 31 31 31h230c17 0 31-14 31-31 0-17-14-31-31-31z m-343 0h-115c-17 0-31 14-31 31 0 17 14 31 31 31h115c17 0 32-14 32-31 0-17-15-31-32-31z" horiz-adv-x="1000" />

<glyph glyph-name="faq-1" unicode="&#xe840;" d="M500-98c-247 0-448 201-448 448 0 247 201 448 448 448 247 0 448-201 448-448 0-247-201-448-448-448z m0 833c-212 0-385-172-385-385 0-212 173-385 385-385 213 0 385 173 385 385 0 213-172 385-385 385z m0-458c-17 0-31 14-31 31v209c0 17 14 31 31 31 17 0 31-14 31-31v-209c0-17-14-31-31-31z m0-135c-5 0-11 1-16 3-5 2-9 5-14 9-3 4-6 8-8 14-2 5-4 10-4 15 0 6 2 11 4 16 2 5 5 10 8 14 5 4 9 7 14 9 10 4 22 4 32 0 5-2 9-5 14-9 3-4 6-9 8-14 2-5 4-10 4-16 0-5-2-10-4-15-2-6-5-10-8-14-5-4-9-7-14-9-5-2-11-3-16-3z" horiz-adv-x="1000" />

<glyph glyph-name="animated-title" unicode="&#xe841;" d="M792 485c-87 0-157 70-157 157 0 86 70 156 157 156 86 0 156-70 156-156 0-87-70-157-156-157z m0 250c-52 0-94-42-94-93 0-52 42-94 94-94 51 0 93 42 93 94 0 51-42 93-93 93z m-167-833h-250c-226 0-323 97-323 323v250c0 226 97 323 323 323h208c17 0 32-14 32-31 0-17-15-32-32-32h-208c-192 0-260-68-260-260v-250c0-192 68-260 260-260h250c192 0 260 68 260 260v208c0 17 15 32 32 32 17 0 31-15 31-32v-208c0-226-97-323-323-323z m-20 432v25c0 2-2 4-4 4h-202c-2 0-4-2-4-4v-25c0-14-11-25-25-25-13 0-25 11-25 25v25c0 30 25 54 54 54h202c30 0 54-24 54-54v-25c0-14-12-25-25-25-14 0-25 11-25 25z m-130-188v230c0 14 11 25 25 25 14 0 25-11 25-25v-230c0-14-11-25-25-25-14 0-25 11-25 25z m80 25c14 0 25-12 25-25 0-14-11-25-25-25h-110c-13 0-25 11-25 25 0 13 12 25 25 25h110z" horiz-adv-x="1000" />

<glyph glyph-name="badge" unicode="&#xe842;" d="M500-98c-45 0-90 13-126 39l-179 134c-47 35-85 110-85 168v310c0 65 48 133 108 155l208 78c41 16 106 16 147 0l208-78c61-22 108-90 108-155v-309c0-59-37-133-85-169l-179-133c-35-27-80-40-125-40z m-52 826l-208-78c-35-14-67-59-67-97v-310c0-39 28-95 60-118l179-134c48-36 128-36 177 0l179 134c32 24 59 79 59 118v310c0 38-31 83-67 97l-207 78c-29 10-77 10-105 0z m-4-471c-8 0-16 3-22 9l-67 67c-12 12-12 32 0 45 12 12 32 12 44 0l45-45 157 157c12 12 32 12 44 0 13-12 13-32 0-45l-179-179c-6-6-14-9-22-9z" horiz-adv-x="1000" />

<glyph glyph-name="countdown" unicode="&#xe843;" d="M500-98c-247 0-448 201-448 448 0 247 201 448 448 448 247 0 448-201 448-448 0-247-201-448-448-448z m0 833c-212 0-385-172-385-385 0-212 173-385 385-385 213 0 385 173 385 385 0 213-172 385-385 385z m155-549c-6 0-11 2-16 5l-129 77c-32 19-56 61-56 98v171c0 17 14 31 31 31 17 0 31-14 31-31v-171c0-15 13-37 26-44l129-77c15-9 19-28 11-43-7-10-17-16-27-16z" horiz-adv-x="1000" />

<glyph glyph-name="counter" unicode="&#xe844;" d="M500-98c-218 0-396 178-396 396 0 218 178 396 396 396 218 0 396-178 396-396 0-17-14-31-31-31-17 0-32 14-32 31 0 184-149 333-333 333-184 0-333-149-333-333 0-184 149-333 333-333 17 0 31-15 31-32 0-17-14-31-31-31z m0 375c-17 0-31 14-31 31v209c0 17 14 31 31 31 17 0 31-14 31-31v-209c0-17-14-31-31-31z m125 458h-250c-17 0-31 15-31 32 0 17 14 31 31 31h250c17 0 31-14 31-31 0-17-14-32-31-32z m167-791c-17 0-32 14-32 31v167c0 17 15 31 32 31 17 0 31-14 31-31v-167c0-17-14-31-31-31z m-125 0c-17 0-32 14-32 31v167c0 17 15 31 32 31 17 0 31-14 31-31v-167c0-17-14-31-31-31z" horiz-adv-x="1000" />

<glyph glyph-name="flip-box" unicode="&#xe845;" d="M659 9c-11 0-22 1-34 2-22 2-47 6-72 12l-70 17c-192 45-255 147-210 338l41 175c9 40 20 72 33 98 72 148 209 135 306 112l70-16c97-23 159-59 194-115 34-55 39-127 16-224l-40-174c-36-153-111-225-234-225z m-112 706c-70 0-114-29-144-91-10-22-20-50-28-85l-41-175c-37-157 6-226 163-264l70-16c23-6 44-9 63-11 113-11 170 39 201 175l41 174c19 81 16 137-9 177-25 41-74 68-155 87l-69 16c-35 8-66 13-92 13z m-200-792c-107 0-175 64-219 200l-53 164c-60 183-7 287 176 346l66 21c21 7 38 11 52 14 12 2 24-2 31-12 7-9 8-22 3-33-10-22-20-50-28-85l-41-174c-37-158 6-226 164-264l70-17c22-5 43-8 62-10 14-1 25-10 28-23 4-13-1-27-12-34-28-19-62-35-106-49l-66-22c-48-15-89-22-127-22z m-23 668l-54-18c-148-48-184-118-136-267l54-164c48-149 118-185 267-137l65 22c3 1 5 1 8 2l-45 11c-192 45-255 147-210 338l41 175c3 13 6 26 10 38z" horiz-adv-x="1000" />

<glyph glyph-name="facebook-feed" unicode="&#xe846;" d="M405 299c-3 0-67 0-97 0-16 0-21 6-21 21 0 39 0 80 0 119 0 16 6 21 21 21h97c0 3 0 60 0 86 0 40 7 77 27 111 21 36 50 59 87 73 25 9 50 13 76 13h97c13 0 19-6 19-20v-112c0-14-6-20-19-20-27 0-54 0-80-1-27 0-40-12-40-40-1-29 0-58 0-88h114c15 0 21-6 21-22v-119c0-16-5-21-21-21-36 0-111 0-114 0v-320c0-17-5-23-23-23-41 0-82 0-123 0-15 0-21 6-21 21 0 103 0 318 0 321z" horiz-adv-x="1000" />

<glyph glyph-name="instagram-feed" unicode="&#xe847;" d="M696 743h-392c-108 0-197-88-197-197v-392c0-108 89-197 197-197h392c109 0 197 89 197 197v392c0 109-88 197-197 197z m131-589c0-73-58-131-131-131h-392c-73 0-131 58-131 131v392c0 73 58 131 131 131h392c73 0 131-58 131-131v-392z m-114 360c27 0 49 22 49 49 0 27-22 49-49 49-27 0-49-22-49-49 0-27 22-49 49-49z m-213 32c-108 0-196-87-196-196 0-108 88-196 196-196 109 0 196 88 196 196 0 109-87 196-196 196z m0-327c-72 0-131 59-131 131 0 72 59 131 131 131 72 0 131-59 131-131 0-72-59-131-131-131z" horiz-adv-x="1000" />

<glyph glyph-name="login" unicode="&#xe848;" d="M507 366c-2 0-2 0-4 0-2 0-5 0-7 0-121 4-212 99-212 216 0 119 97 216 216 216 119 0 216-97 216-216 0-117-92-212-208-216 0 0-1 0-1 0z m-7 369c-85 0-154-69-154-153 0-84 65-151 148-154 2 1 8 1 14 0 81 4 145 71 146 154 0 84-69 153-154 153z m7-825c-82 0-164 21-226 63-58 38-89 91-89 148 0 57 31 110 89 149 125 83 328 83 452 0 57-39 90-91 90-148 0-57-32-110-90-149-63-42-144-63-226-63z m-191 307c-40-27-62-61-62-97 0-35 22-69 62-95 104-70 279-70 382 0 40 26 62 60 62 96 0 36-22 70-62 96-103 69-278 69-382 0z" horiz-adv-x="1000" />

<glyph glyph-name="progress-bar" unicode="&#xe849;" d="M459 6h-146c-32 0-55 2-74 4-139 16-166 98-166 236v208c0 138 27 221 167 236 18 3 41 4 73 4h144c17 0 31-14 31-31 0-18-14-32-31-32h-144c-29 0-49-1-65-3-85-9-113-36-113-174v-208c0-138 28-164 112-174 17-2 37-3 66-3h146c17 0 31-14 31-31 0-18-14-32-31-32z m229 0h-62c-17 0-31 14-31 32 0 17 14 31 31 31h62c28 0 48 1 64 3 85 9 113 36 113 174v208c0 138-28 164-112 174-17 2-37 3-65 3h-62c-17 0-31 14-31 32 0 17 14 31 31 31h62c31 0 54-1 73-4 139-16 166-98 166-236v-208c0-138-27-221-167-236-18-2-41-4-72-4z m-63-104c-17 0-31 14-31 31v834c0 17 14 31 31 31 17 0 31-14 31-31v-834c0-17-14-31-31-31z m-346 406c-5 0-11 2-16 4-5 2-9 5-13 8-4 5-7 9-10 14-2 5-2 11-2 16 0 11 4 22 12 30 15 15 43 15 59 0 7-8 12-19 12-30 0-5-1-11-3-16-3-5-5-9-9-14-4-3-9-6-14-8-5-2-10-4-16-4z m167 0c-6 0-11 2-16 4-5 2-10 5-14 8-3 5-6 9-9 14-2 5-3 11-3 16 0 11 5 22 12 30 16 15 44 15 59 0 8-8 13-19 13-30 0-5-2-11-4-16-2-5-5-9-9-14-4-3-8-6-13-8-5-2-11-4-16-4z" horiz-adv-x="1000" />

<glyph glyph-name="title-scrolltrigger" unicode="&#xe84a;" d="M917 273c-6 0-11 1-16 5l-104 62c-54 33-122 33-177 0-74-45-166-45-240 0-54 33-122 33-176 0l-104-62c-15-9-35-5-43 10-9 15-4 35 11 43l104 63c74 44 166 44 240 0 54-33 122-33 176 0 75 44 167 44 241 0l104-63c15-8 20-28 11-43-6-10-17-15-27-15z m-625 292c-42 0-84 11-121 33l-104 62c-15 9-19 28-11 43 9 15 28 20 43 11l104-62c55-33 122-33 177 0 74 44 166 44 240 0 54-33 122-33 176 0l104 62c15 9 35 4 43-11 9-14 5-34-10-43l-105-62c-74-45-166-45-240 0-54 32-122 32-176 0-37-22-79-33-120-33z m625-584c-6 0-11 1-16 5l-104 62c-54 33-122 33-177 0-74-44-166-44-240 0-54 33-122 33-176 0l-104-62c-15-9-35-4-43 11-9 15-4 34 11 43l104 62c74 45 166 45 240 0 54-32 122-32 176 0 75 45 167 45 241 0l104-62c15-9 20-28 11-43-6-10-17-16-27-16z" horiz-adv-x="1000" />

<glyph glyph-name="twitter" unicode="&#xe84b;" d="M575 410l292 333h-69l-254-289-203 289h-234l307-437-307-349h70l268 305 214-305h234l-318 453h0z m-95-108l-31 44-248 346h107l200-279 31-44 259-363h-106l-212 296v0z" horiz-adv-x="1000" />

<glyph glyph-name="calculator" unicode="&#xe84c;" d="M583-98h-166c-227 0-323 97-323 323v250c0 226 96 323 323 323h166c227 0 323-97 323-323v-250c0-226-96-323-323-323z m-166 833c-192 0-261-68-261-260v-250c0-192 69-260 261-260h166c192 0 261 68 261 260v250c0 192-69 260-261 260h-166z m208-336h-250c-52 0-94 42-94 94v41c0 52 42 94 94 94h250c52 0 94-42 94-94v-41c0-52-42-94-94-94z m-250 166c-17 0-31-14-31-31v-41c0-18 14-32 31-32h250c17 0 31 14 31 32v41c0 17-14 31-31 31h-250z m-35-337c-6 0-11 2-16 4-5 2-10 5-14 8-7 8-12 19-12 30 0 5 1 11 3 16 2 5 5 9 9 14 2 1 4 3 7 5 2 1 4 3 7 3 2 2 5 2 8 3 13 3 28-2 37-11 4-4 7-9 9-14 2-5 4-11 4-16 0-11-5-22-13-30-8-7-18-12-29-12z m167 0c-12 0-22 5-30 12-8 8-12 19-12 30 0 5 1 11 3 16 2 5 5 9 9 14 2 1 4 3 6 5 2 1 5 3 7 3 3 2 6 2 8 3 8 2 17 1 25-3 5-2 9-5 13-8 4-5 7-9 9-14 2-5 3-11 3-16 0-11-4-22-12-30-8-7-18-12-29-12z m166 0c-5 0-11 2-16 4-5 2-9 5-13 8-4 5-7 9-9 14-2 5-3 11-3 16 0 5 1 11 3 16 2 5 5 9 9 14 15 15 43 15 59 0 7-8 12-19 12-30 0-11-5-22-12-30-8-7-18-12-30-12z m-333-166c-11 0-22 4-30 12-7 8-12 18-12 29 0 11 5 22 12 30 2 2 5 4 7 5 2 2 4 3 7 4 2 1 5 2 8 2 13 3 28-1 37-11 2-2 4-4 6-6 1-3 2-5 3-8 1-2 2-5 3-7 0-3 1-6 1-9 0-11-5-21-13-29-8-8-18-12-29-12z m167 0c-12 0-22 4-30 12-8 8-12 18-12 29 0 11 4 22 12 30 10 10 24 14 38 11 2 0 5-1 8-2 2-1 5-2 7-4 2-1 4-3 6-5 8-8 12-19 12-30 0-11-4-21-12-29-8-8-18-12-29-12z m166 0c-11 0-21 4-29 12-8 8-12 18-12 29 0 11 4 22 12 30 4 4 8 7 13 9 16 6 34 3 46-9 7-8 12-19 12-30 0-11-5-21-12-29-4-4-9-7-14-9-5-2-10-3-16-3z" horiz-adv-x="1000" />

<glyph glyph-name="setting" unicode="&#xe84d;" d="M500-93c-28 0-56 6-78 19l-229 132c-94 63-100 73-100 172v240c0 99 6 109 97 171l231 133c44 26 113 26 157 0l230-132c93-63 99-73 99-172v-240c0-99-6-108-97-170l-231-134c-23-13-51-19-79-19z m0 823c-17 0-35-3-47-10l-229-132c-68-46-68-46-68-118v-240c0-71 0-71 70-118l227-132c25-14 70-14 94 0l229 133c68 46 68 46 68 117v240c0 72 0 72-70 119l-227 131c-12 7-29 10-47 10z m0-536c-86 0-156 70-156 156 0 86 70 156 156 156 86 0 156-70 156-156 0-86-70-156-156-156z m0 250c-52 0-94-42-94-94 0-52 42-94 94-94 52 0 94 42 94 94 0 52-42 94-94 94z" horiz-adv-x="1000" />

<glyph glyph-name="license-pro" unicode="&#xe84e;" d="M319 704c-105 0-173-72-173-184v-340c0-112 68-184 173-184h362c105 0 173 72 173 184v340c0 112-68 184-173 184h-362z m362-771h-362c-141 0-236 99-236 247v340c0 148 95 247 236 247h362c141 0 236-99 236-247v-340c0-148-95-247-236-247v0z m-313 463c-25 0-46-21-46-46 0-25 21-46 46-46 26 0 46 21 46 46 0 25-20 46-46 46m0-154c-60 0-108 48-108 108 0 60 48 108 108 108 60 0 109-48 109-108 0-60-49-108-109-108m341 0c-17 0-31 14-31 31v46h-232c-18 0-32 14-32 31 0 17 14 31 32 31h263c17 0 31-14 31-31v-77c0-17-14-31-31-31m-118 0c-17 0-31 14-31 31v77c0 17 14 31 31 31 17 0 31-14 31-31v-77c0-17-14-31-31-31" horiz-adv-x="1000" />
</font>
</defs>
</svg>
