<svg width="252" height="252" viewBox="0 0 252 252" fill="none" xmlns="http://www.w3.org/2000/svg">
<rect x="1" y="1" width="250" height="250" rx="125" fill="white"/>
<rect x="1" y="1" width="250" height="250" rx="125" stroke="#929292" stroke-width="2"/>
<path d="M155.556 190.931C146.167 195.692 132.043 192.21 124.516 189.734C126.514 188.728 128.458 187.586 130.319 186.307C149.014 173.577 159.333 166.695 161.386 165.308C161.304 164.872 161.194 164.464 161.112 164.083C161.167 164.247 161.277 164.655 161.413 165.28C162.508 169.959 165.437 185.953 155.556 190.931Z" fill="url(#paint0_linear_640_284)"/>
<path d="M89.8085 77.583C88.9873 79.1879 88.2757 80.82 87.6461 82.4793C79.1882 104.648 74.836 116.1 74.316 117.46V117.488L74.2886 117.596C74.2886 117.596 62.9566 108.293 63.2851 98.3921C63.2851 98.3377 63.2851 98.2833 63.2851 98.2289C63.3125 97.8209 63.3398 97.4129 63.3946 96.9776C63.3946 96.9776 63.3946 96.9776 63.3946 96.9504V96.9232C63.7778 94.3935 64.9821 91.8638 67.3909 89.4972C76.8889 80.1671 86.1133 78.0726 89.8085 77.583Z" fill="url(#paint1_linear_640_284)"/>
<path d="M102.618 173.985C97.6091 177.222 85.3191 183.995 76.9707 178.99L76.7517 178.854C76.6696 178.827 76.6148 178.772 76.5327 178.718C76.4506 178.663 76.3685 178.609 76.2864 178.555L76.04 178.364L75.8211 178.201L75.5473 177.983L75.301 177.766C75.2189 177.711 75.1368 177.63 75.0546 177.548C65.7482 169.088 65.8577 148.116 65.9945 143.764C67.5547 145.478 69.2244 147.055 71.031 148.551C87.9742 162.587 99.2514 171.373 101.989 173.468L102.208 173.631L102.618 173.985Z" fill="url(#paint2_linear_640_284)"/>
<path d="M161.687 166.532C157.089 169.252 145.784 175.78 130.319 186.334C128.458 187.613 126.514 188.755 124.516 189.762C105.985 199.037 90.3284 191.312 84.4709 187.178C78.0384 182.608 75.0823 177.575 75.0823 177.575C75.1644 177.657 75.2465 177.711 75.3286 177.793C75.4107 177.875 75.4929 177.929 75.575 178.011L75.8487 178.228C75.9308 178.283 75.9855 178.337 76.0677 178.391C76.1498 178.446 76.2319 178.527 76.314 178.582C76.3961 178.636 76.4782 178.691 76.5604 178.745C76.6151 178.799 76.6972 178.827 76.7793 178.881L76.9983 179.017C85.3194 183.995 97.5546 177.303 102.591 174.066C103.576 173.441 104.288 172.924 104.644 172.679L104.781 172.598L104.863 172.543L104.89 172.516C104.89 172.516 104.89 172.516 104.918 172.516L123.722 159.541L124.489 159.024L124.543 158.997L154.954 139.493L156.924 147.3L161.468 165.362C161.523 165.661 161.605 166.069 161.687 166.532Z" fill="#0074BC"/>
<path d="M138.01 58.3242C127.855 56.7738 120.875 69.2592 117.974 75.706C117.892 75.8964 117.81 76.0868 117.728 76.2772C117.728 76.2772 117.728 76.3044 117.7 76.3316C117.618 76.522 117.536 76.7124 117.454 76.8756C117.372 77.0388 117.344 77.1748 117.29 77.3108C117.235 77.4469 117.153 77.6101 117.098 77.7461C117.071 77.8277 117.016 77.9365 116.989 78.0181C116.961 78.0725 116.961 78.0997 116.934 78.1541L116.824 78.4533C116.797 78.5077 116.77 78.5621 116.77 78.6165C116.605 79.0245 116.523 79.2965 116.496 79.3782C116.496 79.3782 116.496 79.3782 116.496 79.4054C116.496 79.4054 116.496 79.4054 116.496 79.4326L110.72 95.019L110.282 96.1886L108.038 102.2L107.928 102.418L95.6932 135.386L77.5456 120.48C77.5456 120.48 76.4781 119.636 74.8906 118.195L74.261 117.596L74.2336 117.569C74.9453 115.719 79.3796 104.104 87.6459 82.4791C88.2754 80.8198 89.0145 79.1877 89.8083 77.5829C99.5801 58.3786 117.454 55.7401 124.79 55.7945C132.7 55.8761 138.01 58.3242 138.01 58.3242Z" fill="#034EA2"/>
<path d="M116.961 78.154C116.989 78.0996 116.989 78.0724 117.016 78.018C117.043 77.9364 117.098 77.8276 117.126 77.746C117.18 77.61 117.235 77.4468 117.317 77.3108C117.399 77.1748 117.427 77.0388 117.481 76.8756C117.536 76.7124 117.646 76.522 117.728 76.3315C117.728 76.3043 117.728 76.3043 117.755 76.2771C117.837 76.0867 117.919 75.8963 118.001 75.7059C120.903 69.2592 127.883 56.7737 138.038 58.3242C148.302 59.9019 159.306 72.8226 164.096 79.1061C161.194 78.5621 158.238 78.29 155.282 78.29C130.018 78.2084 117.18 78.1812 116.961 78.154Z" fill="url(#paint3_linear_640_284)"/>
<path d="M195.683 116.726C195.245 114.822 194.342 113.054 193.028 111.585L192.918 111.449C187.225 105.111 175.455 104.213 171.678 104.104C171.24 104.077 170.911 104.077 170.72 104.077C170.254 104.05 169.844 104.05 169.488 104.05H169.461L146.03 103.343H145.921V103.37L108.065 102.173L110.31 96.1615L110.748 94.9918L116.523 79.4054L116.934 78.263L116.961 78.2086L116.989 78.127C117.208 78.127 130.045 78.1542 155.282 78.263C158.238 78.263 161.194 78.535 164.096 79.079C183.119 82.6424 191.084 97.0319 193.438 103.506C196.148 110.932 195.683 116.726 195.683 116.726Z" fill="#005BAA"/>
<path d="M167.736 185.219C161.304 189.816 155.556 190.931 155.556 190.931C164.698 186.307 162.891 172.271 161.687 166.531C161.578 166.069 161.495 165.661 161.413 165.307L156.87 147.246L154.899 139.439L153.913 135.386L146.003 103.37L169.433 104.077H169.461C169.817 104.077 170.227 104.077 170.692 104.104C170.884 104.104 171.158 104.104 171.541 104.131H171.65C172.253 106.471 175.264 118.249 180.601 137.562C180.711 137.915 180.793 138.269 180.902 138.623L181.203 139.684L181.805 141.86C182.599 144.661 183.119 147.518 183.393 150.401C185.172 169.632 173.347 181.193 167.736 185.219Z" fill="#0066B3"/>
<path d="M183.393 150.401C183.119 147.518 182.599 144.661 181.805 141.86L181.203 139.684L180.902 138.623C180.793 138.269 180.71 137.916 180.601 137.562C175.263 118.249 172.253 106.471 171.65 104.131H171.541C175.209 104.24 187.143 105.056 192.891 111.476L193 111.612C194.287 113.081 195.218 114.849 195.656 116.726C197.873 125.92 188.867 141.833 183.393 150.401Z" fill="url(#paint4_linear_640_284)"/>
<path d="M124.434 158.97L123.667 159.487L104.863 172.489H104.835L104.808 172.516L104.726 172.57L104.589 172.652C104.233 172.897 103.522 173.414 102.536 174.039C99.9359 172.026 88.166 162.805 71.0038 148.552C69.2246 147.083 67.5549 145.478 65.9947 143.791C52.1719 128.613 55.3744 111.639 57.7831 104.948C60.3561 97.7121 64.325 93.5503 64.5166 93.3599C63.9418 94.4751 63.5586 95.6992 63.3944 96.9232V96.9505C63.3944 96.9505 63.3944 96.9504 63.3944 96.9777C63.3396 97.3857 63.2849 97.7937 63.2849 98.2289C63.2849 98.2833 63.2849 98.3377 63.2849 98.3921C63.2849 98.6097 63.2849 98.8274 63.2849 99.0722C63.2849 99.1266 63.2849 99.2082 63.2849 99.2898C63.2849 99.4802 63.3122 99.6706 63.3122 99.8338C63.3122 99.9698 63.3396 100.079 63.3396 100.215C63.3396 100.242 63.3396 100.269 63.3396 100.323C64.325 109.137 73.4946 116.971 74.2336 117.596L74.261 117.624L74.2884 117.651L74.9179 118.249C76.4781 119.691 77.573 120.507 77.573 120.507L95.748 135.413L95.7754 135.44L124.434 158.97Z" fill="#008DD0"/>
<defs>
<linearGradient id="paint0_linear_640_284" x1="182.642" y1="160.108" x2="131.189" y2="197.175" gradientUnits="userSpaceOnUse">
<stop stop-color="#2E3192"/>
<stop offset="1" stop-color="#00AEEF"/>
</linearGradient>
<linearGradient id="paint1_linear_640_284" x1="51.272" y1="134.525" x2="97.5936" y2="59.1575" gradientUnits="userSpaceOnUse">
<stop offset="0.12" stop-color="#2E3192"/>
<stop offset="0.74" stop-color="#00AEEF"/>
</linearGradient>
<linearGradient id="paint2_linear_640_284" x1="121.285" y1="187.313" x2="68.3891" y2="159.443" gradientUnits="userSpaceOnUse">
<stop stop-color="#2E3192"/>
<stop offset="1" stop-color="#00AEEF"/>
</linearGradient>
<linearGradient id="paint3_linear_640_284" x1="116.64" y1="65.1308" x2="155.136" y2="76.1406" gradientUnits="userSpaceOnUse">
<stop stop-color="#2E3192"/>
<stop offset="1" stop-color="#00AEEF"/>
</linearGradient>
<linearGradient id="paint4_linear_640_284" x1="181.684" y1="89.1624" x2="187.081" y2="147.761" gradientUnits="userSpaceOnUse">
<stop stop-color="#2E3192"/>
<stop offset="0.84" stop-color="#079AE0"/>
<stop offset="1" stop-color="#00AEEF"/>
</linearGradient>
</defs>
</svg>
