<svg width="15" height="15" viewBox="0 0 15 15" fill="none" xmlns="http://www.w3.org/2000/svg">
<path d="M10.6776 14.6522C9.67426 15.1683 8.16481 14.7908 7.36035 14.5224C7.5739 14.4133 7.78159 14.2894 7.98051 14.1508C9.97849 12.7705 11.0813 12.0243 11.3007 11.8739C11.2919 11.8267 11.2802 11.7825 11.2715 11.7412C11.2773 11.7589 11.289 11.8031 11.3036 11.871C11.4207 12.3783 11.7337 14.1125 10.6776 14.6522Z" fill="url(#paint0_linear_1096_328)"/>
<path d="M3.65079 2.3623C3.56303 2.53632 3.48697 2.71328 3.41969 2.89319C2.51577 5.2969 2.05065 6.53858 1.99507 6.68604V6.68899L1.99215 6.70079C1.99215 6.70079 0.781075 5.69211 0.816178 4.61855C0.816178 4.61265 0.816178 4.60676 0.816178 4.60086C0.819104 4.55662 0.822029 4.51238 0.827879 4.46519C0.827879 4.46519 0.827879 4.46519 0.827879 4.46224V4.45929C0.868834 4.185 0.997546 3.91071 1.25497 3.65412C2.27005 2.64249 3.25587 2.41539 3.65079 2.3623Z" fill="url(#paint1_linear_1096_328)"/>
<path d="M5.01998 12.8153C4.48466 13.1663 3.1712 13.9007 2.27899 13.358L2.25559 13.3432C2.24681 13.3403 2.24096 13.3344 2.23218 13.3285C2.22341 13.3226 2.21463 13.3167 2.20586 13.3108L2.17953 13.2901L2.15613 13.2724L2.12687 13.2488L2.10054 13.2253C2.09177 13.2194 2.08299 13.2105 2.07422 13.2017C1.07962 12.2844 1.09132 10.0105 1.10595 9.53857C1.27269 9.72438 1.45113 9.89544 1.6442 10.0577C3.45495 11.5795 4.66017 12.5322 4.9527 12.7593L4.97611 12.777L5.01998 12.8153Z" fill="url(#paint2_linear_1096_328)"/>
<path d="M11.3328 12.0068C10.8413 12.3018 9.63317 13.0096 7.98038 14.154C7.78146 14.2926 7.57377 14.4165 7.36022 14.5256C5.3798 15.5313 3.70654 14.6937 3.08052 14.2454C2.39308 13.7499 2.07715 13.2043 2.07715 13.2043C2.08592 13.2131 2.0947 13.219 2.10348 13.2279C2.11225 13.2367 2.12103 13.2426 2.1298 13.2515L2.15906 13.2751C2.16783 13.281 2.17368 13.2869 2.18246 13.2928C2.19123 13.2987 2.20001 13.3075 2.20879 13.3134C2.21756 13.3193 2.22634 13.3252 2.23511 13.3311C2.24096 13.337 2.24974 13.3399 2.25852 13.3458L2.28192 13.3606C3.17121 13.9003 4.47881 13.1748 5.01707 12.8238C5.12238 12.756 5.19843 12.6999 5.23646 12.6734L5.25109 12.6645L5.25986 12.6586L5.26279 12.6557C5.26279 12.6557 5.26279 12.6557 5.26572 12.6557L7.27539 11.2489L7.3573 11.1928L7.36315 11.1899L10.6131 9.0752L10.8238 9.92166L11.3094 11.88C11.3152 11.9125 11.324 11.9567 11.3328 12.0068Z" fill="#0074BC"/>
<path d="M8.80225 0.274377C7.71697 0.106264 6.97102 1.46001 6.66094 2.15901C6.65217 2.17965 6.64339 2.2003 6.63461 2.22094C6.63461 2.22094 6.63461 2.22389 6.63169 2.22684C6.62291 2.24749 6.61414 2.26813 6.60536 2.28583C6.59659 2.30353 6.59366 2.31827 6.58781 2.33302C6.58196 2.34777 6.57318 2.36546 6.56733 2.38021C6.56441 2.38906 6.55856 2.40085 6.55563 2.4097C6.55271 2.4156 6.55271 2.41855 6.54978 2.42445L6.53808 2.45689C6.53515 2.46279 6.53223 2.46869 6.53223 2.47459C6.51468 2.51883 6.5059 2.54832 6.50298 2.55717C6.50298 2.55717 6.50298 2.55717 6.50298 2.56012C6.50298 2.56012 6.50298 2.56012 6.50298 2.56307L5.88574 4.25304L5.83894 4.37986L5.59906 5.03167L5.58736 5.05526L4.27976 8.62987L2.34029 7.01363C2.34029 7.01363 2.2262 6.9222 2.05654 6.76588L1.98925 6.701L1.98633 6.69805C2.06239 6.49749 2.53628 5.23812 3.41972 2.89339C3.487 2.71348 3.56598 2.53652 3.65082 2.36251C4.69515 0.280276 6.60536 -0.00581081 7.38934 8.78814e-05C8.23475 0.00893591 8.80225 0.274377 8.80225 0.274377Z" fill="#034EA2"/>
<path d="M6.55273 2.42464C6.55566 2.41874 6.55566 2.4158 6.55858 2.4099C6.56151 2.40105 6.56736 2.38925 6.57029 2.3804C6.57614 2.36566 6.58199 2.34796 6.59076 2.33321C6.59954 2.31847 6.60246 2.30372 6.60831 2.28602C6.61417 2.26833 6.62587 2.24768 6.63464 2.22704C6.63464 2.22409 6.63464 2.22409 6.63757 2.22114C6.64634 2.20049 6.65512 2.17985 6.6639 2.1592C6.97398 1.46021 7.71993 0.10646 8.80521 0.274572C9.90219 0.445634 11.0782 1.84657 11.5901 2.52787C11.28 2.46888 10.9641 2.43939 10.6481 2.43939C7.9481 2.43054 6.57614 2.42759 6.55273 2.42464Z" fill="url(#paint3_linear_1096_328)"/>
<path d="M14.9654 6.6065C14.9186 6.40005 14.8221 6.20834 14.6817 6.04908L14.67 6.03433C14.0615 5.34714 12.8036 5.24981 12.3999 5.23801C12.3531 5.23506 12.318 5.23506 12.2976 5.23506C12.2478 5.23211 12.2039 5.23211 12.1659 5.23211H12.163L9.65894 5.15543H9.64724V5.15838L5.60156 5.02861L5.84144 4.3768L5.88824 4.24998L6.50548 2.56001L6.54936 2.43613L6.55228 2.43023L6.55521 2.42139C6.57861 2.42139 7.95057 2.42434 10.6477 2.43613C10.9636 2.43613 11.2796 2.46563 11.5896 2.52461C13.6227 2.91098 14.474 4.47118 14.7255 5.17312C15.0151 5.97829 14.9654 6.6065 14.9654 6.6065Z" fill="#005BAA"/>
<path d="M11.9794 14.0328C11.292 14.5312 10.6777 14.6521 10.6777 14.6521C11.6547 14.1508 11.4616 12.6289 11.3329 12.0066C11.3212 11.9564 11.3125 11.9122 11.3037 11.8739L10.8181 9.91549L10.6075 9.06903L10.5021 8.62958L9.65674 5.1582L12.1608 5.23489H12.1637C12.2017 5.23489 12.2456 5.23489 12.2953 5.23784C12.3158 5.23784 12.3451 5.23784 12.386 5.24078H12.3977C12.4621 5.49443 12.7839 6.77149 13.3543 8.86553C13.366 8.90387 13.3748 8.94221 13.3865 8.98055L13.4187 9.09558L13.483 9.33152C13.5679 9.63531 13.6234 9.94499 13.6527 10.2576C13.8428 12.3428 12.5791 13.5963 11.9794 14.0328Z" fill="#0066B3"/>
<path d="M13.6529 10.258C13.6236 9.94541 13.568 9.63573 13.4832 9.33195L13.4189 9.096L13.3867 8.98098C13.375 8.94264 13.3662 8.9043 13.3545 8.86595C12.7841 6.77192 12.4623 5.49485 12.3979 5.24121H12.3862C12.7782 5.25301 14.0536 5.34149 14.668 6.03753L14.6797 6.05228C14.8171 6.21154 14.9166 6.40325 14.9634 6.60676C15.2004 7.60364 14.2379 9.329 13.6529 10.258Z" fill="url(#paint4_linear_1096_328)"/>
<path d="M7.3513 11.1866L7.26939 11.2426L5.25971 12.6524H5.25679L5.25386 12.6553L5.24509 12.6612L5.23046 12.6701C5.19243 12.6966 5.11638 12.7527 5.01106 12.8205C4.73316 12.6023 3.47529 11.6024 1.64113 10.057C1.45099 9.89771 1.27254 9.7237 1.1058 9.54084C-0.37147 7.8951 -0.0292107 6.05471 0.228215 5.32917C0.503192 4.54465 0.927359 4.0934 0.947836 4.07275C0.886405 4.19368 0.845451 4.3264 0.827899 4.45912V4.46207C0.827899 4.46207 0.827899 4.46207 0.827899 4.46502C0.822049 4.50926 0.816198 4.5535 0.816198 4.60069C0.816198 4.60658 0.816198 4.61248 0.816198 4.61838C0.816198 4.64198 0.816198 4.66557 0.816198 4.69212C0.816198 4.69801 0.816198 4.70686 0.816198 4.71571C0.816198 4.73636 0.819124 4.757 0.819124 4.7747C0.819124 4.78944 0.822049 4.80124 0.822049 4.81599C0.822049 4.81894 0.822049 4.82189 0.822049 4.82779C0.927359 5.78337 1.90733 6.63278 1.98631 6.70062L1.98924 6.70357L1.99216 6.70652L2.05945 6.7714C2.22619 6.92772 2.3432 7.0162 2.3432 7.0162L4.28559 8.63244L4.28852 8.63539L7.3513 11.1866Z" fill="#008DD0"/>
<defs>
<linearGradient id="paint0_linear_1096_328" x1="13.5724" y1="11.3102" x2="8.01949" y2="15.2532" gradientUnits="userSpaceOnUse">
<stop stop-color="#2E3192"/>
<stop offset="1" stop-color="#00AEEF"/>
</linearGradient>
<linearGradient id="paint1_linear_1096_328" x1="-0.467685" y1="8.53631" x2="4.58723" y2="0.429615" gradientUnits="userSpaceOnUse">
<stop offset="0.12" stop-color="#2E3192"/>
<stop offset="0.74" stop-color="#00AEEF"/>
</linearGradient>
<linearGradient id="paint2_linear_1096_328" x1="7.01489" y1="14.2604" x2="1.32668" y2="11.3063" gradientUnits="userSpaceOnUse">
<stop stop-color="#2E3192"/>
<stop offset="1" stop-color="#00AEEF"/>
</linearGradient>
<linearGradient id="paint3_linear_1096_328" x1="6.51845" y1="1.01258" x2="10.6414" y2="2.17486" gradientUnits="userSpaceOnUse">
<stop stop-color="#2E3192"/>
<stop offset="1" stop-color="#00AEEF"/>
</linearGradient>
<linearGradient id="paint4_linear_1096_328" x1="13.4703" y1="3.61819" x2="14.0637" y2="9.97019" gradientUnits="userSpaceOnUse">
<stop stop-color="#2E3192"/>
<stop offset="0.84" stop-color="#079AE0"/>
<stop offset="1" stop-color="#00AEEF"/>
</linearGradient>
</defs>
</svg>
