<svg width="200" height="200" viewBox="0 0 200 200" fill="none" xmlns="http://www.w3.org/2000/svg">
<path d="M16.6668 77.7778V122.222H33.3334C36.389 122.222 38.889 124.722 38.889 127.778C38.889 130.833 36.389 133.333 33.3334 133.333H16.6668C10.5557 133.333 5.55566 128.333 5.55566 122.222V77.7778C5.55566 71.6667 10.5557 66.6667 16.6668 66.6667H33.3334C36.389 66.6667 38.889 69.1667 38.889 72.2222C38.889 75.2778 36.389 77.7778 33.3334 77.7778H16.6668ZM150 66.6667V133.333C150 142.5 142.5 150 133.333 150H66.6668C57.5001 150 50.0001 142.5 50.0001 133.333V66.6667C50.0001 57.5 57.5001 50 66.6668 50H133.333C142.5 50 150 57.5 150 66.6667ZM77.7779 116.667H122.222C125.278 116.667 127.778 114.167 127.778 111.111C127.778 108.056 125.278 105.556 122.222 105.556H77.7779C74.7223 105.556 72.2223 108.056 72.2223 111.111C72.2223 114.167 74.7223 116.667 77.7779 116.667ZM127.778 88.8889C127.778 85.8333 125.278 83.3333 122.222 83.3333H77.7779C74.7223 83.3333 72.2223 85.8333 72.2223 88.8889C72.2223 91.9444 74.7223 94.4444 77.7779 94.4444H122.222C125.278 94.4444 127.778 91.9444 127.778 88.8889ZM183.333 66.6667H166.667C163.611 66.6667 161.111 69.1667 161.111 72.2222C161.111 75.2778 163.611 77.7778 166.667 77.7778H183.333V122.222H166.667C163.611 122.222 161.111 124.722 161.111 127.778C161.111 130.833 163.611 133.333 166.667 133.333H183.333C189.445 133.333 194.445 128.333 194.445 122.222V77.7778C194.445 71.6667 189.445 66.6667 183.333 66.6667Z" fill="black"/>
</svg>
