<svg width="200" height="200" viewBox="0 0 200 200" fill="none" xmlns="http://www.w3.org/2000/svg">
<path d="M178.125 21.875H21.875C13.25 21.875 6.25 28.875 6.25 37.5V162.5C6.25 171.125 13.25 178.125 21.875 178.125H178.125C186.75 178.125 193.75 171.125 193.75 162.5V37.5C193.75 28.875 186.75 21.875 178.125 21.875ZM12.5 37.5C12.5 32.3438 16.7188 28.125 21.875 28.125H178.125C183.281 28.125 187.5 32.3438 187.5 37.5V134.375H12.5V37.5ZM175 159.375H140.062C138.781 163 135.312 165.625 131.25 165.625C127.188 165.625 123.719 163 122.438 159.375H25C23.2812 159.375 21.875 157.969 21.875 156.25C21.875 154.531 23.2812 153.125 25 153.125H122.438C123.719 149.5 127.188 146.875 131.25 146.875C135.312 146.875 138.781 149.5 140.062 153.125H175C176.719 153.125 178.125 154.531 178.125 156.25C178.125 157.969 176.719 159.375 175 159.375Z" fill="black"/>
<path d="M131.25 159.375C132.976 159.375 134.375 157.976 134.375 156.25C134.375 154.524 132.976 153.125 131.25 153.125C129.524 153.125 128.125 154.524 128.125 156.25C128.125 157.976 129.524 159.375 131.25 159.375Z" fill="black"/>
<path d="M153.125 46.875C145.562 46.875 139.25 52.25 137.812 59.375H134.375C111.156 59.375 91.375 74.3438 84.1562 95.125C77.25 77.8438 60.3438 65.625 40.625 65.625C38.9062 65.625 37.5 67.0312 37.5 68.75C37.5 70.4688 38.9062 71.875 40.625 71.875C63.0312 71.875 81.25 90.0938 81.25 112.5C81.25 114.219 82.6562 115.625 84.375 115.625C86.0938 115.625 87.5 114.219 87.5 112.5C87.5 86.6562 108.531 65.625 134.375 65.625H137.812C139.25 72.75 145.562 78.125 153.125 78.125C161.75 78.125 168.75 71.125 168.75 62.5C168.75 53.875 161.75 46.875 153.125 46.875Z" fill="black"/>
</svg>
