<svg width="200" height="200" viewBox="0 0 200 200" fill="none" xmlns="http://www.w3.org/2000/svg">
<path fill-rule="evenodd" clip-rule="evenodd" d="M60.1233 59.0294C64.6241 54.5285 70.7287 52 77.0937 52H141.094C147.458 52 153.563 54.5286 158.064 59.0293C162.566 63.5302 165.094 69.635 165.094 76V92C165.094 96.4184 161.512 100 157.094 100C152.675 100 149.094 96.4184 149.094 92V76C149.094 73.8782 148.251 71.8435 146.75 70.3434C145.25 68.8428 143.215 68 141.094 68H77.0937C74.972 68 72.9372 68.8429 71.437 70.3431C69.9367 71.8433 69.0937 73.8782 69.0937 76V140C69.0937 142.122 69.9365 144.156 71.437 145.657C72.9372 147.157 74.9719 148 77.0937 148H93.0936C97.512 148 101.094 151.582 101.094 156C101.094 160.418 97.512 164 93.0936 164H77.0937C70.7287 164 64.624 161.472 60.1229 156.97C55.6223 152.47 53.0938 146.365 53.0938 140V76C53.0938 69.635 55.6224 63.5302 60.1233 59.0294C60.1233 59.0294 60.1233 59.0294 60.1233 59.0294Z" fill="black"/>
<path fill-rule="evenodd" clip-rule="evenodd" d="M103.437 102.343C105.58 100.201 108.749 99.4528 111.624 100.41L183.624 124.41C186.693 125.434 188.845 128.206 189.073 131.433C189.303 134.661 187.565 137.709 184.672 139.156L155.057 153.963L140.249 183.578C138.802 186.472 135.754 188.21 132.527 187.98C129.299 187.75 126.528 185.6 125.505 182.53L101.505 110.53C100.546 107.655 101.294 104.486 103.437 102.343ZM121.743 120.65L134.576 159.148L141.938 144.422C142.713 142.874 143.968 141.619 145.516 140.845L160.241 133.482L121.743 120.65Z" fill="black"/>
<path fill-rule="evenodd" clip-rule="evenodd" d="M29.0938 20C33.512 20 37.0938 23.5818 37.0938 28V28.08C37.0938 32.4982 33.512 36.08 29.0938 36.08C24.6754 36.08 21.0938 32.4982 21.0938 28.08V28C21.0938 23.5818 24.6754 20 29.0938 20Z" fill="black"/>
<path fill-rule="evenodd" clip-rule="evenodd" d="M61.0937 20C65.512 20 69.0937 23.5818 69.0937 28V28.08C69.0937 32.4982 65.512 36.08 61.0937 36.08C56.6754 36.08 53.0938 32.4982 53.0938 28.08V28C53.0938 23.5818 56.6754 20 61.0937 20Z" fill="black"/>
<path fill-rule="evenodd" clip-rule="evenodd" d="M93.0938 20C97.5121 20 101.094 23.5818 101.094 28V28.08C101.094 32.4982 97.5121 36.08 93.0938 36.08C88.6754 36.08 85.0938 32.4982 85.0938 28.08V28C85.0938 23.5818 88.6754 20 93.0938 20Z" fill="black"/>
<path fill-rule="evenodd" clip-rule="evenodd" d="M125.094 20C129.512 20 133.094 23.5818 133.094 28V28.08C133.094 32.4982 129.512 36.08 125.094 36.08C120.675 36.08 117.094 32.4982 117.094 28.08V28C117.094 23.5818 120.675 20 125.094 20Z" fill="black"/>
<path fill-rule="evenodd" clip-rule="evenodd" d="M29.0938 52C33.512 52 37.0938 55.5818 37.0938 60V60.08C37.0938 64.4983 33.512 68.08 29.0938 68.08C24.6754 68.08 21.0938 64.4983 21.0938 60.08V60C21.0938 55.5818 24.6754 52 29.0938 52Z" fill="black"/>
<path fill-rule="evenodd" clip-rule="evenodd" d="M29.0938 84C33.512 84 37.0938 87.5816 37.0938 92V92.08C37.0938 96.4984 33.512 100.08 29.0938 100.08C24.6754 100.08 21.0938 96.4984 21.0938 92.08V92C21.0938 87.5816 24.6754 84 29.0938 84Z" fill="black"/>
<path fill-rule="evenodd" clip-rule="evenodd" d="M29.0938 116C33.512 116 37.0938 119.582 37.0938 124V124.08C37.0938 128.498 33.512 132.08 29.0938 132.08C24.6754 132.08 21.0938 128.498 21.0938 124.08V124C21.0938 119.582 24.6754 116 29.0938 116Z" fill="black"/>
</svg>
