<svg width="200" height="200" viewBox="0 0 200 200" fill="none" xmlns="http://www.w3.org/2000/svg">
<path d="M192.308 38.4277C192.308 21.4806 178.523 7.69231 161.576 7.69231H38.4241C21.4769 7.69231 7.69238 21.4806 7.69238 38.4277V161.576C7.69238 178.523 21.4769 192.308 38.4241 192.308H161.576C178.523 192.308 192.308 178.523 192.308 161.576C192.308 124.408 192.308 75.8326 192.308 38.4277ZM23.077 38.4277C23.077 29.9617 29.958 23.0769 38.4241 23.0769H161.576C170.042 23.0769 176.923 29.9617 176.923 38.4277V60.8999H23.077V38.4277ZM176.923 161.576C176.923 170.038 170.042 176.923 161.576 176.923H38.4241C29.958 176.923 23.077 170.038 23.077 161.576V76.2846H176.923V161.576Z" fill="black"/>
<path d="M52.3661 154.466H99.9999C104.252 154.466 107.692 151.022 107.692 146.774C107.692 142.526 104.252 139.081 99.9999 139.081H52.3661C48.1143 139.081 44.6738 142.526 44.6738 146.774C44.6738 151.022 48.1143 154.466 52.3661 154.466Z" fill="black"/>
<path d="M52.3661 114.123H147.634C151.885 114.123 155.326 110.678 155.326 106.43C155.326 102.182 151.885 98.738 147.634 98.738H52.3661C48.1143 98.738 44.6738 102.182 44.6738 106.43C44.6738 110.678 48.1143 114.123 52.3661 114.123Z" fill="black"/>
<path d="M39.6784 36.5234C36.3325 40.2511 37.0825 44.8433 39.6784 47.4459C42.5287 50.1428 47.3235 50.6481 50.5257 47.4459C53.5903 44.3892 53.5958 39.5857 50.5257 36.5234C47.6712 33.5552 42.6059 33.58 39.6784 36.5234Z" fill="black"/>
<path d="M79.447 36.5234C76.2334 33.3099 71.2679 33.8571 68.6072 36.5234C65.4326 39.6639 65.8038 44.6497 68.6072 47.4459C71.3881 50.2268 76.3289 50.5725 79.447 47.4459C82.9191 43.9828 82.0568 38.8545 79.447 36.5234Z" fill="black"/>
<path d="M97.5282 36.5234C94.5565 39.4876 94.5549 44.4802 97.5282 47.4459C100.226 50.1436 105.183 50.6046 108.376 47.4459C111.436 44.3776 111.449 39.6044 108.376 36.5234C105.529 33.6764 100.375 33.6764 97.5282 36.5234Z" fill="black"/>
</svg>
