<svg width="200" height="200" viewBox="0 0 200 200" fill="none" xmlns="http://www.w3.org/2000/svg">
<path fill-rule="evenodd" clip-rule="evenodd" d="M187.5 37.5C187.5 23.6937 176.306 12.5 162.5 12.5H37.5C23.6937 12.5 12.5 23.6937 12.5 37.5V162.5C12.5 176.306 23.6937 187.5 37.5 187.5H162.5C176.306 187.5 187.5 176.306 187.5 162.5V37.5ZM175 37.5V162.5C175 169.406 169.406 175 162.5 175H37.5C30.5938 175 25 169.406 25 162.5V37.5C25 30.5938 30.5938 25 37.5 25H162.5C169.406 25 175 30.5938 175 37.5Z" fill="#060000"/>
<path fill-rule="evenodd" clip-rule="evenodd" d="M18.75 50H181.25C184.7 50 187.5 47.2 187.5 43.75C187.5 40.3 172.2 18.75 168.75 18.75L28.125 21.875C24.675 21.875 12.5 40.3 12.5 43.75C12.5 47.2 15.3 50 18.75 50Z" fill="#060000"/>
<path fill-rule="evenodd" clip-rule="evenodd" d="M63.8687 77.1098L45.1188 100.545C39.6375 107.389 39.6375 117.117 45.1188 123.961L63.8687 147.396C66.025 150.088 69.9625 150.525 72.6562 148.372C75.35 146.219 75.7875 142.283 73.6312 139.591L54.875 116.156C53.05 113.873 53.05 110.633 54.875 108.35L73.6312 84.9152C75.7875 82.2237 75.35 78.2874 72.6562 76.1342C69.9625 73.981 66.025 74.4183 63.8687 77.1098Z" fill="#060000"/>
<path fill-rule="evenodd" clip-rule="evenodd" d="M126.369 84.9152L145.125 108.35C146.95 110.633 146.95 113.873 145.125 116.156L126.369 139.591C124.213 142.283 124.65 146.219 127.344 148.372C130.038 150.525 133.975 150.088 136.131 147.396L154.881 123.961C160.362 117.117 160.362 107.389 154.881 100.545L136.131 77.1098C133.975 74.4183 130.038 73.981 127.344 76.1342C124.65 78.2874 124.213 82.2237 126.369 84.9152Z" fill="#060000"/>
<path fill-rule="evenodd" clip-rule="evenodd" d="M100.119 80.025L87.6188 142.525C86.9438 145.906 89.1438 149.2 92.5251 149.881C95.9063 150.556 99.2001 148.356 99.8814 144.975L112.381 82.475C113.056 79.0937 110.856 75.7999 107.475 75.1187C104.094 74.4437 100.8 76.6437 100.119 80.025Z" fill="#060000"/>
</svg>
