<svg width="200" height="200" viewBox="0 0 200 200" fill="none" xmlns="http://www.w3.org/2000/svg">
<path d="M179.981 53.9875C179.95 53.925 179.95 53.85 179.912 53.7875C179.837 53.6563 179.706 53.5813 179.619 53.4563C178.012 50.8313 175.806 48.5688 173.062 46.9813L109.369 10.2125C103.594 6.88125 96.4124 6.88125 90.6249 10.2125L26.9312 46.9813C24.1874 48.5688 21.9874 50.8313 20.3812 53.4563C20.2937 53.5813 20.1624 53.6563 20.0874 53.7875C20.0499 53.85 20.0562 53.9188 20.0187 53.9875C18.4437 56.7625 17.5562 59.9375 17.5562 63.225V136.769C17.5562 143.444 21.1499 149.663 26.9312 153.013L90.6187 189.788C93.4874 191.438 96.6999 192.263 99.9124 192.281C99.9436 192.281 99.9687 192.3 99.9999 192.3C100.031 192.3 100.056 192.281 100.087 192.281C103.3 192.269 106.512 191.444 109.375 189.788L173.069 153.013C178.85 149.669 182.444 143.45 182.444 136.769V63.225C182.444 59.9375 181.556 56.7687 179.981 53.9875ZM166.819 142.181L106.25 177.15V155.856C106.25 152.4 103.45 149.606 99.9999 149.606C96.5499 149.606 93.7499 152.4 93.7499 155.856V177.156L33.1874 142.188C31.2562 141.075 30.0624 139 30.0624 136.775V66.7625L58.3187 83.075C59.3062 83.6438 60.3812 83.9125 61.4374 83.9125C63.5999 83.9125 65.6999 82.7875 66.8561 80.7875C68.5812 77.7937 67.5562 73.975 64.5687 72.25L36.3687 55.9688L96.8687 21.0375C97.8374 20.4813 98.9187 20.2063 99.9999 20.2063C101.081 20.2063 102.162 20.4813 103.125 21.0375L163.631 55.9688L135.437 72.2438C132.45 73.9688 131.425 77.7938 133.15 80.7812C134.312 82.7812 136.406 83.9062 138.569 83.9062C139.625 83.9062 140.7 83.6375 141.687 83.0688L169.944 66.7563V136.763C169.944 138.994 168.744 141.069 166.819 142.181Z" fill="black"/>
<path d="M135.606 93.1938L126.887 90.05C118.937 87.1813 112.725 80.9813 109.862 73.025L106.725 64.3C105.706 61.4813 103 59.5813 99.9998 59.5813C96.9998 59.5813 94.2936 61.4813 93.2748 64.3063L90.1373 73.0313C87.2748 80.9813 81.0623 87.1875 73.106 90.0563L64.3748 93.2C61.5623 94.225 59.6748 96.925 59.6748 99.9125C59.6748 102.9 61.5623 105.6 64.3936 106.631L73.106 109.769C81.0623 112.638 87.2686 118.844 90.1373 126.8L93.2748 135.525C94.2936 138.35 96.9936 140.25 99.9998 140.25C103.006 140.25 105.706 138.35 106.725 135.525L109.862 126.8C112.725 118.85 118.937 112.638 126.887 109.769L135.625 106.625C138.437 105.6 140.325 102.9 140.325 99.9125C140.325 96.925 138.437 94.225 135.606 93.1938ZM99.9998 118.131C96.0561 110.231 89.6811 103.856 81.7811 99.9125C89.6811 95.9688 96.0561 89.6 99.9998 81.6938C103.944 89.5938 110.319 95.9688 118.219 99.9125C110.319 103.856 103.944 110.231 99.9998 118.131Z" fill="black"/>
</svg>
