<svg width="200" height="200" viewBox="0 0 200 200" fill="none" xmlns="http://www.w3.org/2000/svg">
<path d="M150 16.6667H83.333C69.5259 16.6667 58.333 27.8596 58.333 41.6667V125C58.333 138.807 69.5259 150 83.333 150H150C163.807 150 175 138.807 175 125V41.6667C175 27.8596 163.807 16.6667 150 16.6667Z" fill="white"/>
<path d="M116.667 50H50C36.1929 50 25 61.1929 25 75V158.333C25 172.14 36.1929 183.333 50 183.333H116.667C130.474 183.333 141.667 172.14 141.667 158.333V75C141.667 61.1929 130.474 50 116.667 50Z" fill="white"/>
<path d="M58.333 50H108.333V66.6667C108.333 75.8333 100.833 83.3333 91.6663 83.3333H74.9997C65.833 83.3333 58.333 75.8333 58.333 66.6667V50Z" fill="white"/>
<path d="M150 10.4167H83.3333C66.0833 10.4167 52.0833 24.4167 52.0833 41.6667V43.75H50C32.75 43.75 18.75 57.75 18.75 75V158.333C18.75 175.583 32.75 189.583 50 189.583H116.667C133.917 189.583 147.917 175.583 147.917 158.333V156.25H150C167.25 156.25 181.25 142.25 181.25 125V41.6667C181.25 24.4167 167.25 10.4167 150 10.4167ZM64.5833 56.25H102.083V66.6667C102.083 72.4167 97.4167 77.0833 91.6667 77.0833H75C69.25 77.0833 64.5833 72.4167 64.5833 66.6667V56.25ZM135.417 158.333C135.417 168.667 127 177.083 116.667 177.083H50C39.6667 177.083 31.25 168.667 31.25 158.333V75C31.25 64.6667 39.6667 56.25 50 56.25H52.0833V66.6667C52.0833 79.3333 62.3333 89.5833 75 89.5833H91.6667C104.333 89.5833 114.583 79.3333 114.583 66.6667V56.25H116.667C127 56.25 135.417 64.6667 135.417 75V158.333ZM168.75 125C168.75 135.333 160.333 143.75 150 143.75H147.917V75C147.917 57.75 133.917 43.75 116.667 43.75H64.5833V41.6667C64.5833 31.3333 73 22.9167 83.3333 22.9167H150C160.333 22.9167 168.75 31.3333 168.75 41.6667V125ZM114.583 116.667C114.583 120.083 111.75 122.917 108.333 122.917H58.3333C54.9167 122.917 52.0833 120.083 52.0833 116.667C52.0833 113.25 54.9167 110.417 58.3333 110.417H108.333C111.75 110.417 114.583 113.25 114.583 116.667ZM114.583 150C114.583 153.417 111.75 156.25 108.333 156.25H58.3333C54.9167 156.25 52.0833 153.417 52.0833 150C52.0833 146.583 54.9167 143.75 58.3333 143.75H108.333C111.75 143.75 114.583 146.583 114.583 150Z" fill="#050819"/>
</svg>
