<svg width="28" height="28" viewBox="0 0 28 28" fill="none" xmlns="http://www.w3.org/2000/svg">
<path d="M23.417 21C23.8311 21.0002 24.167 21.3359 24.167 21.75C24.167 22.1641 23.8311 22.4998 23.417 22.5H9.75C9.33579 22.5 9 22.1642 9 21.75C9 21.3358 9.33579 21 9.75 21H23.417Z" fill="#090914"/>
<rect x="3" y="20" width="4" height="4" rx="2" fill="#090914"/>
<path d="M23.417 13C23.8311 13.0002 24.167 13.3359 24.167 13.75C24.167 14.1641 23.8311 14.4998 23.417 14.5H9.75C9.33579 14.5 9 14.1642 9 13.75C9 13.3358 9.33579 13 9.75 13H23.417Z" fill="#090914"/>
<rect x="3" y="12" width="4" height="4" rx="2" fill="#090914"/>
<path d="M23.417 5C23.8311 5.00018 24.167 5.33589 24.167 5.75C24.167 6.16411 23.8311 6.49982 23.417 6.5H9.75C9.33579 6.5 9 6.16421 9 5.75C9 5.33579 9.33579 5 9.75 5H23.417Z" fill="#090914"/>
<rect x="3" y="4" width="4" height="4" rx="2" fill="#090914"/>
</svg>
