<svg width="28" height="28" viewBox="0 0 28 28" fill="none" xmlns="http://www.w3.org/2000/svg">
<path d="M13.6733 26.5417H8.42334C3.58167 26.5417 1.42334 24.3834 1.42334 19.5417V14.2917C1.42334 9.45002 3.58167 7.29169 8.42334 7.29169H13.6733C18.515 7.29169 20.6733 9.45002 20.6733 14.2917V19.5417C20.6733 24.3834 18.515 26.5417 13.6733 26.5417ZM8.42334 9.04169C4.55001 9.04169 3.17334 10.4184 3.17334 14.2917V19.5417C3.17334 23.415 4.55001 24.7917 8.42334 24.7917H13.6733C17.5467 24.7917 18.9233 23.415 18.9233 19.5417V14.2917C18.9233 10.4184 17.5467 9.04169 13.6733 9.04169H8.42334Z" fill="#090914"/>
<path d="M21.14 16.0416H19.7983C19.32 16.0416 18.9233 15.645 18.9233 15.1666V14.2916C18.9233 10.4183 17.5467 9.04165 13.6733 9.04165H12.7983C12.32 9.04165 11.9233 8.64498 11.9233 8.16665V6.82498C11.9233 3.11498 13.58 1.45831 17.29 1.45831H21.14C24.85 1.45831 26.5067 3.11498 26.5067 6.82498V10.675C26.5067 14.385 24.85 16.0416 21.14 16.0416ZM20.6733 14.2916H21.14C23.8817 14.2916 24.7567 13.4166 24.7567 10.675V6.82498C24.7567 4.08331 23.8817 3.20831 21.14 3.20831H17.29C14.5483 3.20831 13.6733 4.08331 13.6733 6.82498V7.29165C18.515 7.29165 20.6733 9.44998 20.6733 14.2916Z" fill="#090914"/>
</svg>
