<svg width="28" height="28" viewBox="0 0 28 28" fill="none" xmlns="http://www.w3.org/2000/svg">
<path d="M12.8565 23.625H8.74984C7.87484 23.625 7.23317 23.59 6.68484 23.5083C2.79984 23.0767 2.0415 20.7667 2.0415 16.9167V11.0833C2.0415 7.23333 2.8115 4.91167 6.71984 4.48C7.23317 4.41 7.87484 4.375 8.74984 4.375H12.7865C13.2648 4.375 13.6615 4.77167 13.6615 5.25C13.6615 5.72833 13.2648 6.125 12.7865 6.125H8.74984C7.9565 6.125 7.3965 6.16 6.9415 6.21833C4.57317 6.475 3.7915 7.22167 3.7915 11.0833V16.9167C3.7915 20.7783 4.57317 21.5133 6.9065 21.7817C7.3965 21.8517 7.9565 21.875 8.74984 21.875H12.8565C13.3348 21.875 13.7315 22.2717 13.7315 22.75C13.7315 23.2283 13.3348 23.625 12.8565 23.625Z" fill="black"/>
<path d="M19.2501 23.625H17.5234C17.0451 23.625 16.6484 23.2283 16.6484 22.75C16.6484 22.2717 17.0451 21.875 17.5234 21.875H19.2501C20.0434 21.875 20.6034 21.84 21.0584 21.7817C23.4268 21.525 24.2084 20.7783 24.2084 16.9167V11.0833C24.2084 7.22167 23.4268 6.48667 21.0934 6.21833C20.6034 6.14833 20.0434 6.125 19.2501 6.125H17.5234C17.0451 6.125 16.6484 5.72833 16.6484 5.25C16.6484 4.77167 17.0451 4.375 17.5234 4.375H19.2501C20.1251 4.375 20.7668 4.41 21.3151 4.49167C25.2001 4.92333 25.9584 7.23333 25.9584 11.0833V16.9167C25.9584 20.7667 25.1884 23.0883 21.2801 23.52C20.7668 23.59 20.1251 23.625 19.2501 23.625Z" fill="black"/>
<path d="M17.5 26.5417C17.0217 26.5417 16.625 26.145 16.625 25.6667V2.33334C16.625 1.855 17.0217 1.45834 17.5 1.45834C17.9783 1.45834 18.375 1.855 18.375 2.33334V25.6667C18.375 26.145 17.9783 26.5417 17.5 26.5417Z" fill="black"/>
<path d="M7.81657 15.1667C7.6649 15.1667 7.51324 15.1317 7.37324 15.0733C7.23324 15.015 7.1049 14.9333 6.98824 14.8283C6.88324 14.7117 6.7899 14.5833 6.73157 14.4433C6.67324 14.3033 6.6499 14.1517 6.6499 14C6.6499 13.6967 6.77824 13.3933 6.98824 13.1717C7.4199 12.74 8.20157 12.74 8.6449 13.1717C8.8549 13.3933 8.98324 13.6967 8.98324 14C8.98324 14.1517 8.94824 14.3033 8.8899 14.4433C8.83157 14.5833 8.7499 14.7117 8.6449 14.8283C8.52824 14.9333 8.3999 15.015 8.2599 15.0733C8.1199 15.1317 7.96824 15.1667 7.81657 15.1667Z" fill="black"/>
<path d="M12.4836 15.1667C12.3319 15.1667 12.1802 15.1317 12.0402 15.0733C11.9002 15.015 11.7719 14.9333 11.6552 14.8283C11.5502 14.7117 11.4686 14.5833 11.3986 14.4433C11.3519 14.3033 11.3169 14.1517 11.3169 14C11.3169 13.6967 11.4452 13.3933 11.6552 13.1717C12.0869 12.74 12.8802 12.74 13.3119 13.1717C13.5219 13.3933 13.6502 13.6967 13.6502 14C13.6502 14.1517 13.6152 14.3033 13.5569 14.4433C13.4986 14.5833 13.4169 14.7117 13.3119 14.8283C13.1952 14.9333 13.0669 15.015 12.9269 15.0733C12.7869 15.1317 12.6352 15.1667 12.4836 15.1667Z" fill="black"/>
</svg>
