<svg width="28" height="28" viewBox="0 0 28 28" fill="none" xmlns="http://www.w3.org/2000/svg">
<path d="M25.3447 9.88672C25.3447 7.81796 25.1171 6.60377 24.6279 5.8623C24.1827 5.18768 23.4226 4.77045 21.9053 4.60059C21.8999 4.59998 21.8941 4.59936 21.8887 4.59863C21.3319 4.52368 20.6938 4.5 19.9463 4.5H8.89844C8.15104 4.5 7.51377 4.52371 6.95703 4.59863C6.9516 4.59936 6.94587 4.59997 6.94043 4.60059C5.42284 4.77042 4.66304 5.18764 4.21777 5.8623C3.72845 6.60374 3.5 7.81767 3.5 9.88672V17.2598C3.5 19.3287 3.7285 20.5427 4.21777 21.2842C4.63519 21.9167 5.32863 22.3235 6.66406 22.5117L6.94043 22.5459L6.95703 22.5488C7.51375 22.6237 8.15108 22.6465 8.89844 22.6465H19.9463C20.7052 22.6465 21.3317 22.6238 21.8887 22.5488L21.9053 22.5459C23.4226 22.376 24.1827 21.9588 24.6279 21.2842C25.1171 20.5427 25.3447 19.3284 25.3447 17.2598V9.88672ZM26.8447 17.2598C26.8447 19.3437 26.6357 20.9647 25.8799 22.1104C25.0823 23.3189 23.7939 23.8409 22.0879 24.0342C21.4316 24.1225 20.7272 24.1465 19.9463 24.1465H8.89844C8.13581 24.1465 7.4254 24.1227 6.77344 24.0361V24.0371C6.77054 24.0368 6.76754 24.0355 6.76465 24.0352C6.76209 24.0348 6.75939 24.0355 6.75684 24.0352V24.0342C5.05098 23.8409 3.76339 23.3188 2.96582 22.1104C2.20984 20.9647 2 19.3439 2 17.2598V9.88672C2 7.80246 2.20976 6.18176 2.96582 5.03613C3.76339 3.82763 5.05096 3.30563 6.75684 3.1123V3.11133C6.75939 3.11098 6.76209 3.11167 6.76465 3.11133C6.76754 3.111 6.77055 3.1097 6.77344 3.10938V3.11035C7.42539 3.02381 8.13582 3 8.89844 3H19.9463C20.7154 3 21.4323 3.02295 22.0889 3.11133L22.0879 3.1123C23.7939 3.30561 25.0823 3.82757 25.8799 5.03613C26.6358 6.18174 26.8447 7.80266 26.8447 9.88672V17.2598Z" fill="#090914"/>
<path d="M20.5767 17C20.9908 17.0001 21.3267 17.3358 21.3267 17.75C21.3267 18.1642 20.9908 18.4999 20.5767 18.5H8.2915C7.87729 18.5 7.5415 18.1642 7.5415 17.75C7.5415 17.3358 7.87729 17 8.2915 17H20.5767Z" fill="#090914"/>
<path d="M15 19.25V15.75C15 15.3358 15.3358 15 15.75 15C16.1642 15 16.5 15.3358 16.5 15.75V19.25C16.5 19.6642 16.1642 20 15.75 20C15.3358 20 15 19.6642 15 19.25Z" fill="#090914"/>
</svg>
