<svg width="200" height="200" viewBox="0 0 200 200" fill="none" xmlns="http://www.w3.org/2000/svg">
<path d="M106.667 200C137.948 199.965 163.298 174.615 163.334 143.333V56.6668C163.298 25.3852 137.948 0.0347656 106.667 0H93.3335C62.0515 0.0347656 36.7015 25.3852 36.6667 56.6668V143.334C36.7015 174.615 62.0515 199.965 93.3332 200H106.667ZM156.667 56.6668V80H113.333V50C113.31 43.9387 109.202 38.6555 103.333 37.1398V6.6668H106.666C134.268 6.69805 156.635 29.0652 156.667 56.6668ZM106.667 71.9535L93.5835 85.0367C93.4253 84.4824 93.3414 83.9098 93.3335 83.3332V78.0465L106.667 64.7133V71.9535ZM100 43.3332C100.576 43.341 101.149 43.425 101.703 43.5832L93.3335 51.9531V50C93.3332 46.318 96.3179 43.3332 100 43.3332ZM93.3332 61.3801L106.416 48.2969C106.575 48.8512 106.659 49.4238 106.666 50.0004V55.2871L93.3332 68.6203V61.3801ZM106.667 81.3801V83.3336C106.667 87.0156 103.682 90.0004 100 90.0004C99.4238 89.9926 98.8507 89.9086 98.2964 89.7504L106.667 81.3801ZM93.3332 6.6668H96.6664V37.1402C90.7972 38.6555 86.689 43.9387 86.6664 50.0004V80.0004H43.3332V56.6672C43.3644 29.0652 65.732 6.69805 93.3332 6.6668ZM43.3332 143.333V86.6668H87.1398C88.6367 92.5477 93.9316 96.6637 100 96.6637C106.068 96.6637 111.363 92.5473 112.86 86.6668H156.667V143.334C156.635 170.935 134.268 193.302 106.667 193.334H93.3335C65.732 193.302 43.3644 170.935 43.3332 143.333Z" fill="black"/>
<path d="M66.6667 53.3332H76.6667C78.5077 53.3332 79.9999 51.8406 79.9999 50C79.9999 48.159 78.5073 46.6668 76.6667 46.6668H66.6667C64.8257 46.6668 63.3335 48.1594 63.3335 50C63.3331 51.841 64.8257 53.3332 66.6667 53.3332Z" fill="black"/>
<path d="M120 50C120 51.841 121.493 53.3332 123.333 53.3332H133.333C135.174 53.3332 136.666 51.8406 136.666 50C136.666 48.159 135.174 46.6668 133.333 46.6668H123.333C121.493 46.6668 120 48.159 120 50Z" fill="black"/>
<path d="M116.5 36.8332C117.384 36.8332 118.232 36.4816 118.857 35.8566L125.927 28.7867C127.19 27.4789 127.172 25.3996 125.886 24.1141C124.6 22.8281 122.521 22.8102 121.213 24.0734L114.143 31.1434C113.19 32.0965 112.906 33.5301 113.421 34.7754C113.937 36.0211 115.152 36.8332 116.5 36.8332Z" fill="black"/>
<path d="M81.1434 35.8566C81.9805 36.723 83.2196 37.0707 84.3852 36.7656C85.5508 36.4605 86.4606 35.5504 86.7657 34.3852C87.0707 33.2195 86.7231 31.9805 85.8567 31.1434L78.7867 24.0734C77.4789 22.8102 75.3996 22.8281 74.1141 24.1141C72.8282 25.4 72.8102 27.4789 74.0735 28.7867L81.1434 35.8566Z" fill="black"/>
</svg>
