<svg width="28" height="28" viewBox="0 0 28 28" fill="none" xmlns="http://www.w3.org/2000/svg">
<path d="M4.10788 24.7499C4.39522 24.7298 4.6666 24.6102 4.87531 24.4117C5.54598 23.8665 6.21703 23.3227 6.88845 22.7802C8.03694 21.8553 9.20692 20.8955 10.3487 19.9722C11.7968 21.4014 12.8032 22.4484 14.1289 23.7487C14.8872 24.4418 15.5973 24.4232 16.318 23.6602C17.7103 22.0482 18.6638 19.5221 17.1657 17.2678C17.0973 17.1777 17.1198 17.1828 17.1987 17.1037C18.5628 15.7474 19.1459 15.1795 20.6991 13.6029C20.9883 13.3083 20.9883 13.3066 21.2464 13.4782C21.7216 13.7726 22.2904 13.8771 22.8393 13.7708C23.3881 13.6645 23.8768 13.3552 24.2078 12.9047C24.5811 12.458 24.7752 11.8885 24.7524 11.3068C24.7297 10.7251 24.4918 10.1726 24.0847 9.75633C21.7062 7.35834 20.6751 6.32739 18.2726 3.9444C17.8469 3.52807 17.2804 3.28655 16.6853 3.26757C16.0901 3.24858 15.5094 3.45351 15.058 3.84186C14.6066 4.23022 14.3172 4.77376 14.2471 5.3651C14.1769 5.95644 14.3311 6.55258 14.6792 7.03576L13.9815 7.73062C12.797 8.91011 12.2868 9.4178 10.8266 10.8947C8.88683 9.44247 6.0793 10.1774 4.44621 11.5992C3.58199 12.3529 3.53846 13.1606 4.34793 13.9681C5.50381 15.1202 6.36008 15.9963 7.64992 17.2633C7.76972 17.3871 7.79481 17.3665 7.68891 17.5024C6.28004 19.3949 4.93234 21.2822 3.54748 23.1737C3.37719 23.4087 2.97809 23.9588 3.51335 24.4815C3.58957 24.5636 3.68142 24.6296 3.78352 24.6757C3.88562 24.7218 3.9959 24.747 4.10788 24.7499ZM5.94735 14.4833L4.89108 13.425C4.69627 13.2714 4.56953 13.0476 4.53811 12.8016C4.58949 12.5478 4.73778 12.3241 4.95147 12.178C6.34275 10.9714 8.6936 10.2996 10.3277 11.4805C10.3967 11.5507 10.4796 11.6056 10.5711 11.6418C10.6626 11.678 10.7606 11.6946 10.859 11.6905C10.9573 11.6864 11.0536 11.6617 11.1418 11.618C11.23 11.5744 11.308 11.5127 11.3709 11.437C12.8311 9.96002 13.3405 9.45309 14.5235 8.27509L15.2171 7.58435C15.292 7.52726 15.3541 7.45515 15.3995 7.37264C15.4449 7.29013 15.4726 7.19904 15.4807 7.10522C15.4888 7.01139 15.4772 6.91691 15.4467 6.82782C15.4162 6.73874 15.3674 6.65702 15.3034 6.58791C15.0646 6.26083 14.9579 5.8558 15.0044 5.45354C15.051 5.05128 15.2474 4.68133 15.5545 4.41743C15.8617 4.15353 16.257 4.01505 16.6617 4.0296C17.0664 4.04416 17.4507 4.21067 17.7381 4.49595C20.1324 6.87108 21.1627 7.9011 23.536 10.2938C23.8136 10.5759 23.9748 10.9521 23.9876 11.3477C24.0004 11.7432 23.8638 12.1291 23.605 12.4285C23.3912 12.7298 23.0711 12.9387 22.7092 13.013C22.3474 13.0873 21.9708 13.0214 21.6556 12.8287C20.8878 12.3147 20.4613 12.7485 20.1515 13.0643C18.746 14.4874 18.3585 14.8717 17.186 16.0345C16.7679 16.5198 15.9801 16.8693 16.525 17.6918C17.7861 19.5891 16.9448 21.7594 15.7381 23.1564C15.6827 23.2463 15.6062 23.3212 15.5152 23.3746C15.4242 23.428 15.3216 23.4584 15.2161 23.463C15.1107 23.4676 15.0058 23.4463 14.9105 23.401C14.8152 23.3557 14.7325 23.2877 14.6695 23.2031C12.0173 20.5624 8.61985 17.134 5.94735 14.4833ZM4.16826 23.6261C5.5536 21.7298 6.91865 19.8302 8.32204 17.9338L9.81117 19.4194C8.00305 20.8887 6.19535 22.3548 4.38808 23.8179C4.10833 24.0455 4.10955 23.9929 4.01373 23.8903C4.05141 23.7948 4.10352 23.7057 4.16826 23.6261Z" fill="#090914"/>
<path d="M16.6931 3.02184C17.3293 3.04214 17.9356 3.29292 18.4 3.72618L18.4445 3.76867L18.4457 3.76987C20.8486 6.15332 21.8803 7.18474 24.2593 9.5832L24.2605 9.5844C24.7101 10.0442 24.9729 10.6546 24.998 11.2972C25.023 11.9369 24.8106 12.5629 24.402 13.0553C24.0344 13.5529 23.4934 13.8945 22.886 14.0121C22.2764 14.1301 21.6448 14.0141 21.117 13.6872L21.1136 13.6851L21.1103 13.6829C21.0714 13.657 21.0444 13.6394 21.0244 13.627C20.9898 13.658 20.9448 13.7036 20.8745 13.7752L20.8743 13.7754C19.3416 15.3312 18.7518 15.9063 17.4285 17.2217C18.9317 19.5867 17.9109 22.1921 16.5041 23.8209L16.5005 23.8251L16.4967 23.8291C16.1119 24.2364 15.6974 24.4794 15.2466 24.4961C14.7958 24.5127 14.3686 24.3007 13.9631 23.9301L13.9599 23.9272L13.9568 23.9242C12.6872 22.6791 11.6864 21.6422 10.3322 20.3021C9.24737 21.1805 8.13282 22.0935 7.04289 22.9713C6.37335 23.5122 5.70417 24.0545 5.03537 24.5982C4.7865 24.831 4.46523 24.9713 4.12506 24.995L4.1133 24.9959L4.10165 24.9956C3.95693 24.9919 3.81434 24.9593 3.68239 24.8997C3.5541 24.8418 3.43847 24.7594 3.34162 24.6574L3.31113 24.6267C3.00468 24.3091 2.9565 23.9638 3.02642 23.6639C3.09334 23.3769 3.26594 23.1433 3.34846 23.0294L3.34918 23.0284C4.71778 21.1592 6.05589 19.2859 7.45015 17.4116C6.17504 16.1586 5.3194 15.2835 4.17439 14.1422C3.74148 13.7104 3.50192 13.2433 3.52383 12.7525C3.54567 12.2632 3.82461 11.8152 4.2847 11.4139L4.28482 11.4138C5.13525 10.6734 6.2879 10.1137 7.4834 9.92637C8.61391 9.74927 9.79849 9.90381 10.7984 10.5738C12.1485 9.20889 12.6638 8.69577 13.8081 7.55637L14.3634 7.00326C14.0621 6.5049 13.9339 5.91845 14.003 5.33616C14.0804 4.68371 14.3996 4.08397 14.8977 3.65549C15.3958 3.22701 16.0364 3.0009 16.6931 3.02184ZM16.6853 3.26755C16.0901 3.24856 15.5094 3.45354 15.0579 3.84189L15.0162 3.87874C14.5887 4.26425 14.3151 4.79223 14.2471 5.36508L14.2411 5.42054C14.1867 5.99358 14.3421 6.56772 14.6792 7.03579L13.9815 7.73065C12.797 8.91011 12.2868 9.41786 10.8266 10.8948L10.735 10.8283C8.79939 9.46563 6.05384 10.1996 4.44626 11.5991C3.58205 12.3528 3.5385 13.1606 4.34796 13.968C5.50382 15.1202 6.36007 15.9963 7.64988 17.2633C7.76968 17.3871 7.79479 17.3665 7.68889 17.5025L7.42543 17.8572C6.11141 19.6308 4.84578 21.4004 3.54747 23.1737C3.37718 23.4087 2.97814 23.9587 3.51338 24.4814C3.5896 24.5635 3.68148 24.6295 3.78357 24.6756C3.87291 24.716 3.96848 24.7404 4.066 24.7478L4.1079 24.7498C4.39524 24.7298 4.66667 24.6102 4.87537 24.4117C5.54602 23.8665 6.21701 23.3227 6.88841 22.7802C8.0369 21.8553 9.207 20.8954 10.3488 19.9722C11.7969 21.4014 12.8031 22.4484 14.1289 23.7488C14.8635 24.4202 15.5528 24.4236 16.2504 23.7295L16.318 23.6603C17.6886 22.0734 18.6339 19.6009 17.2341 17.3737L17.1657 17.2678C17.0973 17.1777 17.1199 17.1828 17.1987 17.1037C18.3922 15.9169 18.988 15.3338 20.1588 14.1504L20.6991 13.6029C20.9883 13.3083 20.9883 13.3066 21.2464 13.4782C21.7068 13.7634 22.255 13.8703 22.7878 13.7801L22.8393 13.7707C23.3881 13.6644 23.8768 13.3552 24.2078 12.9047C24.5694 12.4719 24.7628 11.924 24.7539 11.3613L24.7525 11.3068C24.7297 10.7251 24.4918 10.1725 24.0847 9.75629C22.3009 7.95783 21.2749 6.9283 19.8599 5.52064L18.2726 3.9444C17.8602 3.54109 17.3157 3.30177 16.741 3.26995L16.6853 3.26755ZM9.81116 19.4194C8.00304 20.8886 6.19532 22.3548 4.38805 23.8179C4.10832 24.0454 4.1096 23.9928 4.01379 23.8903C4.04676 23.8067 4.09076 23.7281 4.14463 23.6563L4.16827 23.6261C5.5536 21.7299 6.91867 19.8303 8.32205 17.9339L9.81116 19.4194ZM16.6617 4.02962C17.0664 4.04417 17.4507 4.21066 17.7381 4.49594C20.1323 6.87107 21.1627 7.90108 23.536 10.2938C23.8135 10.5758 23.9748 10.9521 23.9876 11.3477C24.0004 11.7432 23.8638 12.1291 23.605 12.4285L23.5637 12.4839C23.3511 12.7553 23.0485 12.9433 22.7093 13.013L22.6412 13.0253C22.3006 13.0786 21.9511 13.0094 21.6557 12.8287C20.8879 12.3146 20.4613 12.7485 20.1514 13.0643L19.2601 13.9653C18.5032 14.7282 18.0654 15.1624 17.186 16.0345L17.1458 16.0796C16.72 16.5421 15.9972 16.8951 16.5251 17.6919C17.7861 19.5891 16.9448 21.7594 15.7382 23.1564L15.7164 23.1894C15.6634 23.2647 15.5949 23.3279 15.5153 23.3746L15.4806 23.3936C15.3985 23.4352 15.3084 23.4589 15.2161 23.463L15.1767 23.4634C15.0978 23.4621 15.0198 23.4463 14.9467 23.4169L14.9105 23.401C14.8272 23.3614 14.7533 23.3044 14.694 23.2341L14.6695 23.2031C12.0174 20.5624 8.61987 17.1339 5.94737 14.4832L4.8911 13.4249C4.69631 13.2714 4.56951 13.0476 4.53809 12.8016C4.58947 12.5479 4.73778 12.3241 4.95147 12.1779C6.34275 10.9713 8.69366 10.2996 10.3278 11.4804C10.3967 11.5506 10.4796 11.6057 10.5711 11.6419C10.6512 11.6735 10.7363 11.6902 10.8222 11.6911L10.859 11.6905C10.9573 11.6864 11.0537 11.6616 11.1418 11.618C11.23 11.5743 11.308 11.5127 11.3708 11.437C12.466 10.3292 13.0264 9.76721 13.7372 9.05843L15.2171 7.58433C15.292 7.52725 15.3542 7.45511 15.3995 7.3726C15.4449 7.29009 15.4726 7.19898 15.4807 7.10517C15.4888 7.01136 15.4773 6.91685 15.4467 6.82778C15.4162 6.73872 15.3674 6.65705 15.3034 6.58796C15.0796 6.28131 14.9718 5.90609 14.9976 5.52893L15.0044 5.45355C15.048 5.07641 15.2235 4.72766 15.4983 4.46809L15.5545 4.41744C15.8616 4.15354 16.257 4.01508 16.6617 4.02962ZM16.6529 4.2752C16.31 4.26287 15.975 4.38024 15.7147 4.60385C15.4545 4.82745 15.2881 5.14092 15.2487 5.48175C15.2095 5.81983 15.2983 6.16017 15.4971 6.43612C15.5777 6.5271 15.6398 6.63298 15.6792 6.74808C15.7209 6.86957 15.7367 6.99846 15.7257 7.12641C15.7146 7.25436 15.6768 7.37854 15.6149 7.49107C15.5561 7.5979 15.4766 7.69175 15.3813 7.76762L14.697 8.44927C13.5152 9.62606 13.0061 10.1326 11.5493 11.6061C11.4664 11.7026 11.3651 11.7818 11.2509 11.8383C11.1319 11.8973 11.0019 11.9305 10.8692 11.936C10.7366 11.9416 10.6042 11.9192 10.4807 11.8704C10.3653 11.8248 10.2602 11.7567 10.171 11.6707C9.42336 11.1365 8.50462 11.0142 7.59143 11.176C6.67153 11.339 5.77637 11.788 5.11255 12.3637L5.10187 12.373L5.09023 12.3809C4.94069 12.4832 4.83375 12.6359 4.78835 12.8104C4.81732 12.9654 4.89773 13.1063 5.01677 13.2099L5.0433 13.2319L5.0547 13.2409L6.12045 14.3087C8.45791 16.6271 11.3549 19.5453 13.8172 22.0055L14.843 23.0289L14.8558 23.0418L14.8667 23.0563C14.9058 23.1087 14.957 23.1509 15.016 23.179C15.0751 23.207 15.1401 23.2202 15.2055 23.2174C15.2708 23.2145 15.3344 23.1957 15.3908 23.1626C15.4471 23.1295 15.4945 23.0831 15.5288 23.0275L15.5393 23.0107L15.5521 22.9958C16.73 21.6321 17.4901 19.5878 16.3203 17.8279L16.3202 17.8276C16.1646 17.5928 16.0886 17.3678 16.0939 17.1481C16.0992 16.9279 16.1855 16.7446 16.2951 16.5928C16.4021 16.4446 16.5403 16.3144 16.6636 16.2013C16.7936 16.0821 16.9072 15.9815 16.9998 15.874L17.006 15.8667L17.0129 15.86C18.1849 14.6977 18.5717 14.3139 19.976 12.8921C20.124 12.7412 20.3467 12.5087 20.6513 12.4031C20.9786 12.2896 21.3551 12.3336 21.7863 12.6203C22.0478 12.7794 22.3599 12.8338 22.6598 12.7722C22.9607 12.7104 23.2268 12.5368 23.4045 12.2863L23.4114 12.2767L23.419 12.2677C23.6374 12.015 23.7527 11.6894 23.7419 11.3556C23.7311 11.0221 23.5953 10.7048 23.3614 10.4669C20.9887 8.07466 19.9588 7.04512 17.565 4.67047L17.5649 4.67035C17.3214 4.42866 16.9958 4.28754 16.6529 4.2752ZM8.3505 18.3093C7.15865 19.9235 5.99368 21.5381 4.81656 23.1542C6.35881 21.9052 7.90147 20.654 9.44434 19.4005L8.3505 18.3093Z" fill="#090914"/>
</svg>
