<svg width="200" height="200" viewBox="0 0 200 200" fill="none" xmlns="http://www.w3.org/2000/svg">
<g clip-path="url(#clip0_1905_33985)">
<path d="M198.666 96.269C180.488 74.1223 142.003 48.2773 100 48.2773C57.8469 48.2773 19.3602 74.298 1.33471 96.269C-0.444902 98.438 -0.444902 101.562 1.33471 103.731C19.9433 126.413 58.5186 151.723 100 151.723C142.956 151.723 181.277 124.916 198.666 103.731C200.445 101.562 200.445 98.438 198.666 96.269ZM139.958 100C139.958 122.033 122.033 139.958 99.9998 139.958C77.9661 139.958 60.0414 122.032 60.0414 100C60.0414 77.9671 77.9665 60.0416 99.9998 60.0416C122.035 60.042 139.958 77.9694 139.958 100ZM13.8284 100.002C20.4492 93.1204 36.4131 78.2698 58.823 68.7384C44.7594 87.2177 44.7539 112.767 58.8163 131.253C41.7775 124.031 25.9492 112.622 13.8284 100.002ZM141.177 131.262C155.241 112.782 155.246 87.2329 141.184 68.7471C158.222 75.9686 174.051 87.3784 186.172 99.998C179.551 106.88 163.587 121.73 141.177 131.262Z" fill="black"/>
<path d="M80 100C80 111.028 88.9718 120 100 120C111.028 120 120 111.028 120 100C120 88.9718 111.028 80 100 80C88.9718 80 80 88.9718 80 100ZM108.235 100C108.235 104.541 104.541 108.235 100 108.235C95.4588 108.235 91.7647 104.541 91.7647 100C91.7647 95.4588 95.4588 91.7647 100 91.7647C104.541 91.7647 108.235 95.4588 108.235 100Z" fill="black"/>
<path d="M99.9995 25.4902C103.248 25.4902 105.882 22.8565 105.882 19.6078V5.88235C105.882 2.63373 103.248 0 99.9995 0C96.7509 0 94.1172 2.63373 94.1172 5.88235V19.6078C94.1172 22.8565 96.7509 25.4902 99.9995 25.4902Z" fill="black"/>
<path d="M135.098 33.3576C137.918 34.9663 141.512 33.9855 143.122 31.162L150.95 17.4365C152.559 14.6145 151.577 11.0224 148.755 9.41255C145.932 7.80314 142.341 8.78549 140.731 11.6082L132.903 25.3337C131.293 28.1553 132.276 31.7478 135.098 33.3576Z" fill="black"/>
<path d="M56.8782 31.162C58.4877 33.9839 62.0798 34.9667 64.9022 33.3572C67.7241 31.7478 68.7069 28.1553 67.0975 25.3333L59.2692 11.6078C57.6598 8.78587 54.0669 7.80313 51.2453 9.41254C48.4233 11.022 47.4406 14.6145 49.05 17.4365L56.8782 31.162Z" fill="black"/>
<path d="M99.9995 174.51C96.7509 174.51 94.1172 177.144 94.1172 180.392V194.118C94.1172 197.366 96.7509 200 99.9995 200C103.248 200 105.882 197.366 105.882 194.118V180.392C105.882 177.144 103.248 174.51 99.9995 174.51Z" fill="black"/>
<path d="M64.9022 166.643C62.0802 165.034 58.488 166.016 56.8782 168.838L49.05 182.564C47.4406 185.385 48.4233 188.978 51.2453 190.587C54.0677 192.197 57.6598 191.214 59.2692 188.392L67.0975 174.667C68.7073 171.845 67.7241 168.252 64.9022 166.643Z" fill="black"/>
<path d="M143.122 168.838C141.512 166.016 137.919 165.034 135.098 166.642C132.276 168.252 131.293 171.844 132.903 174.666L140.731 188.392C142.34 191.214 145.932 192.197 148.755 190.587C151.577 188.978 152.559 185.385 150.95 182.564L143.122 168.838Z" fill="black"/>
</g>
<defs>
<clipPath id="clip0_1905_33985">
<rect width="200" height="200" fill="white"/>
</clipPath>
</defs>
</svg>
