<svg width="200" height="200" viewBox="0 0 200 200" fill="none" xmlns="http://www.w3.org/2000/svg">
<g clip-path="url(#clip0_1903_33908)">
<path d="M82.9149 152.439L59.3484 176.005C49.5782 185.776 33.7561 185.776 23.9942 176.007C14.2302 166.243 14.2302 150.42 23.9922 140.658L71.1334 93.5165C80.8954 83.7541 96.7191 83.7541 106.481 93.5165C109.735 96.7707 115.012 96.7707 118.266 93.5165C121.52 90.2622 121.52 84.9857 118.266 81.7315C101.995 65.4606 75.6193 65.4606 59.3484 81.7315L12.2076 128.873C-4.06333 145.144 -4.06333 171.519 12.2076 187.79C28.4765 204.07 54.8543 204.07 71.1338 187.79L94.7004 164.224C97.9546 160.97 97.9546 155.693 94.7004 152.439C91.4461 149.185 86.1692 149.185 82.9149 152.439Z" fill="black"/>
<path d="M187.793 71.1242C204.064 54.8533 204.064 28.4774 187.793 12.2065C171.522 -4.06401 145.148 -4.06401 128.868 12.2045L100.592 40.4812C97.3375 43.7354 97.3375 49.0119 100.592 52.2662C103.846 55.5204 109.123 55.5204 112.377 52.2662L140.651 23.9915C150.42 14.2291 166.245 14.2291 176.008 23.9915C185.77 33.7535 185.77 49.5772 176.008 59.3392L124.158 111.189C114.396 120.951 98.5727 120.951 88.8107 111.189C85.5564 107.934 80.2799 107.934 77.0257 111.189C73.7714 114.443 73.7714 119.719 77.0257 122.974C93.2966 139.244 119.672 139.244 135.943 122.974L187.793 71.1242Z" fill="black"/>
<path d="M155.896 144.11C152.642 140.856 147.365 140.856 144.111 144.11C140.857 147.364 140.857 152.641 144.111 155.895L169.103 180.887C172.357 184.141 177.633 184.141 180.888 180.887C184.142 177.632 184.142 172.356 180.888 169.102L155.896 144.11Z" fill="black"/>
<path d="M44.1188 55.9029C47.3731 59.1571 52.6496 59.1571 55.9038 55.9029C59.1581 52.6486 59.1581 47.3721 55.9038 44.1178L30.8873 19.1013C27.6331 15.8471 22.3566 15.8471 19.1023 19.1013C15.8481 22.3556 15.8481 27.6321 19.1023 30.8864L44.1188 55.9029Z" fill="black"/>
<path d="M191.665 124.999H166.666C162.063 124.999 158.333 128.729 158.333 133.332C158.333 137.934 162.063 141.665 166.666 141.665H191.665C196.268 141.665 199.998 137.934 199.998 133.332C199.998 128.729 196.268 124.999 191.665 124.999Z" fill="black"/>
<path d="M66.6671 41.6663C71.2694 41.6663 75.0002 37.9355 75.0002 33.3332V8.3335C75.0002 3.73082 71.2694 0 66.6671 0C62.0648 0 58.334 3.73082 58.334 8.33311V33.3328C58.3336 37.9351 62.0648 41.6663 66.6671 41.6663Z" fill="black"/>
<path d="M8.33408 74.9991H33.3338C37.9361 74.9991 41.6669 71.2683 41.6669 66.666C41.6669 62.0637 37.9361 58.3329 33.3338 58.3329H8.33408C3.73179 58.3329 0.000976562 62.0637 0.000976562 66.666C0.000976562 71.2683 3.73179 74.9991 8.33408 74.9991Z" fill="black"/>
<path d="M133.333 158.331C128.73 158.331 125 162.062 125 166.664V191.664C125 196.266 128.73 199.997 133.333 199.997C137.935 199.997 141.666 196.266 141.666 191.664V166.664C141.666 162.063 137.935 158.331 133.333 158.331Z" fill="black"/>
</g>
<defs>
<clipPath id="clip0_1903_33908">
<rect width="200" height="200" fill="white"/>
</clipPath>
</defs>
</svg>
