<svg width="168" height="125" viewBox="0 0 168 125" fill="none" xmlns="http://www.w3.org/2000/svg">
<g clip-path="url(#clip0_973_17289)">
<path d="M67.7787 27.7097C-72.2814 14.5032 -108.162 142.401 -108.595 208L-157 -183H366C361.363 -155.054 327.202 -91.5564 227.646 -61.1371C103.202 -23.1129 242.854 44.2177 67.7787 27.7097Z" fill="#5E3AFF" fill-opacity="0.2"/>
<path d="M-13.7149 68.7306C-107.981 59.8474 -132.13 145.876 -132.421 190L-165 -73H187C183.879 -54.2024 160.887 -11.4919 93.8823 8.96917C10.1263 34.5455 104.118 79.8344 -13.7149 68.7306Z" fill="#6A48FF"/>
</g>
<defs>
<clipPath id="clip0_973_17289">
<path d="M0 20C0 8.95431 8.95431 0 20 0H168V125H0V20Z" fill="white"/>
</clipPath>
</defs>
</svg>
